<?xml version="1.0" encoding="UTF-8" standalone="no"?>
<!DOCTYPE svg PUBLIC "-//W3C//DTD SVG 1.1//EN" "http://www.w3.org/Graphics/SVG/1.1/DTD/svg11.dtd">
<svg xmlns="http://www.w3.org/2000/svg" version="1.1" viewBox="0.00 0.00 388.00 372.00">
<g stroke-width="2.00" fill="none" stroke-linecap="butt">
<path stroke="#a5d1f0" vector-effect="non-scaling-stroke" d="
  M 98.94 57.82
  Q 78.23 73.47 63.81 95.04
  C 60.83 99.50 57.34 105.09 54.81 110.52
  C 51.97 116.59 49.23 122.02 47.16 128.76
  Q 45.40 134.54 43.08 140.00
  A 0.48 0.48 0.0 0 0 43.48 140.66
  C 48.80 141.12 57.09 142.57 61.41 145.91
  C 63.64 147.64 66.30 148.93 68.15 150.56
  Q 73.62 155.39 77.65 161.48
  C 79.28 163.95 80.03 167.04 81.41 169.85
  A 1.35 1.34 39.6 0 1 81.50 170.76
  Q 81.24 171.82 82.10 172.26
  Q 82.52 172.48 82.63 172.94
  Q 86.49 189.45 79.04 203.49
  Q 68.84 222.73 46.95 226.71
  Q 45.63 226.95 45.99 228.24
  C 47.28 232.92 48.87 237.90 51.30 242.25
  C 52.95 245.19 54.02 248.76 55.49 251.32
  Q 57.38 254.61 59.22 257.94
  C 61.84 262.67 65.09 266.89 68.04 271.47
  Q 68.88 272.77 71.00 274.98
  Q 72.59 276.65 73.74 278.77"
/>
<path stroke="#9dc2e3" vector-effect="non-scaling-stroke" d="
  M 73.74 278.77
  Q 74.40 280.00 76.68 281.58
  Q 78.47 282.82 80.11 286.20
  A 1.74 1.70 -89.2 0 0 80.82 286.95
  Q 84.51 288.98 86.59 292.64
  Q 86.88 293.15 87.40 293.42
  Q 90.46 294.98 92.68 297.53
  C 94.57 299.71 96.78 300.57 98.90 302.39
  Q 101.79 304.87 103.58 305.98
  Q 106.23 307.61 108.76 309.42
  Q 111.68 311.52 113.96 312.75
  Q 121.49 316.81 129.09 320.54"
/>
<path stroke="#9abbde" vector-effect="non-scaling-stroke" d="
  M 129.09 320.54
  Q 131.72 321.16 133.98 322.25
  Q 138.60 324.47 138.62 324.48
  Q 142.97 326.15 146.94 326.90
  Q 148.62 327.21 148.76 325.51
  Q 149.18 320.28 150.79 315.70
  C 151.36 314.07 152.61 312.81 153.37 311.19
  C 156.78 304.02 162.24 298.38 169.01 294.28
  C 170.51 293.37 172.55 292.76 174.27 291.73
  C 182.35 286.87 195.66 287.47 204.51 289.71
  Q 206.72 290.26 214.21 294.48"
/>
<path stroke="#94b0d5" vector-effect="non-scaling-stroke" d="
  M 214.21 294.48
  C 217.72 295.72 218.77 298.18 221.49 299.95
  C 224.48 301.91 224.90 304.29 226.89 306.51
  Q 228.95 308.80 229.53 309.93
  Q 232.34 315.37 233.46 321.45
  A 0.31 0.30 -18.8 0 0 233.90 321.66
  Q 234.13 321.55 234.26 321.72
  Q 234.57 322.14 234.59 322.39
  L 234.95 326.50
  Q 235.02 327.31 235.81 327.10
  Q 245.21 324.62 254.00 320.33"
/>
<path stroke="#92a7cf" vector-effect="non-scaling-stroke" d="
  M 254.00 320.33
  Q 278.22 309.70 297.35 291.26"
/>
<path stroke="#969dc9" vector-effect="non-scaling-stroke" d="
  M 297.35 291.26
  Q 309.38 279.82 314.12 272.60
  Q 315.49 270.51 316.63 269.11
  Q 318.31 267.05 319.09 265.65
  C 321.24 261.79 323.95 258.17 325.86 254.44
  C 328.78 248.72 331.50 243.58 333.73 237.37
  C 335.31 232.97 337.62 229.59 338.29 224.28
  Q 338.35 223.79 337.86 223.75
  Q 335.04 223.53 332.29 223.11
  Q 330.02 222.76 327.00 221.35
  Q 324.77 220.31 322.39 219.57
  C 320.38 218.94 318.83 217.83 317.00 216.91
  Q 315.15 215.98 313.62 214.35
  C 311.64 212.23 309.36 210.96 307.64 208.77
  Q 304.80 205.13 302.47 201.17
  C 300.22 197.34 299.10 192.68 297.86 188.32
  C 296.71 184.28 296.33 179.43 296.98 175.75
  Q 298.19 168.88 301.91 160.01
  C 303.09 157.21 305.27 155.41 306.96 152.83
  Q 308.35 150.72 310.17 149.23
  C 312.61 147.26 314.36 145.00 317.12 143.57
  Q 321.14 141.48 325.25 139.54
  C 329.48 137.53 333.42 137.20 337.99 136.92
  Q 338.57 136.88 338.46 136.31
  C 337.31 130.50 334.55 125.48 332.63 120.05
  Q 331.23 116.07 329.14 112.41
  C 326.80 108.32 325.01 103.49 322.02 99.54
  C 320.42 97.41 319.42 94.88 317.75 92.75
  Q 314.52 88.65 314.48 88.59
  Q 310.16 82.48 305.04 77.09"
/>
<path stroke="#92a7cf" vector-effect="non-scaling-stroke" d="
  M 305.04 77.09
  C 300.23 71.81 293.69 65.14 286.95 60.14
  Q 284.36 58.23 281.68 56.08
  Q 279.66 54.46 277.42 53.12
  Q 275.50 51.96 273.14 50.25
  Q 270.12 48.07 266.45 46.55"
/>
<path stroke="#94b0d5" vector-effect="non-scaling-stroke" d="
  M 266.45 46.55
  Q 260.36 42.30 253.14 39.91
  C 251.38 39.32 250.26 38.01 248.39 37.38
  Q 242.13 35.26 235.61 33.44
  Q 235.05 33.29 235.11 33.87
  Q 235.43 37.24 234.43 40.33
  Q 233.04 44.67 232.99 44.83
  Q 229.69 56.82 220.33 65.06
  C 210.94 73.32 199.56 76.52 187.36 75.62"
/>
<path stroke="#9dc2e3" vector-effect="non-scaling-stroke" d="
  M 187.36 75.62
  Q 180.05 74.80 173.26 71.99
  C 169.62 70.49 166.19 67.35 162.49 65.24
  A 1.61 1.58 -89.5 0 1 161.91 64.64
  C 160.27 61.69 157.62 60.38 156.07 57.70
  C 153.25 52.85 150.35 48.36 149.36 42.72
  Q 148.58 38.28 147.91 33.81
  Q 147.85 33.35 147.40 33.47
  Q 140.99 35.17 134.74 37.41
  C 132.32 38.28 130.05 39.82 127.53 40.88
  C 117.33 45.16 107.78 51.20 98.94 57.82"
/>
<path stroke="#3272b8" vector-effect="non-scaling-stroke" d="
  M 187.36 75.62
  Q 187.36 77.78 186.69 79.08
  A 0.59 0.58 26.3 0 0 186.96 79.87
  L 188.82 80.73"
/>
<path stroke="#9dc2e3" vector-effect="non-scaling-stroke" d="
  M 188.82 80.73
  C 179.00 80.74 172.55 77.70 163.17 72.00
  C 161.15 70.78 160.26 68.73 158.00 67.46
  C 155.17 65.86 154.64 62.88 152.38 60.92
  Q 151.14 59.85 150.67 59.06
  Q 148.13 54.74 146.58 49.93
  Q 146.43 49.47 145.96 49.36
  Q 145.41 49.23 145.32 48.78
  Q 144.47 44.75 143.48 40.77
  Q 143.37 40.30 142.90 40.42
  Q 135.00 42.44 131.04 44.60
  Q 125.64 47.53 120.06 50.08
  Q 115.55 52.13 101.77 62.06"
/>
<path stroke="#4294d4" vector-effect="non-scaling-stroke" d="
  M 101.77 62.06
  L 99.48 61.80
  A 1.22 1.13 35.2 0 1 99.01 59.57
  Q 99.47 59.38 98.94 57.82"
/>
<path stroke="#92a7cf" vector-effect="non-scaling-stroke" d="
  M 263.33 50.21
  Q 267.24 52.92 271.25 55.18
  Q 272.39 55.82 275.88 58.31
  C 277.93 59.78 280.95 61.19 282.70 63.30
  Q 283.60 64.38 284.81 65.14
  C 291.08 69.08 296.81 75.70 302.02 81.09"
/>
<path stroke="#969dc9" vector-effect="non-scaling-stroke" d="
  M 302.02 81.09
  C 303.21 83.44 305.92 85.10 307.60 87.80
  C 309.48 90.80 311.94 92.89 313.81 96.00
  Q 315.39 98.65 316.96 100.81
  Q 319.64 104.48 321.23 108.80
  C 321.80 110.35 323.40 111.33 324.13 113.09
  Q 325.86 117.26 327.52 121.44
  C 328.56 124.05 331.05 127.73 331.67 131.64
  Q 331.75 132.14 331.26 132.29
  Q 324.17 134.52 317.34 137.49
  C 314.75 138.62 313.15 140.48 310.80 142.08
  C 307.63 144.26 305.98 146.56 303.32 149.11
  C 301.33 151.01 300.60 153.26 299.01 155.45
  Q 296.83 158.46 296.08 160.39
  Q 288.23 180.72 296.48 200.97
  C 297.55 203.60 299.68 205.70 301.07 208.40
  C 302.58 211.32 304.69 212.46 306.67 214.91
  Q 308.18 216.79 309.94 217.90
  C 313.10 219.89 316.05 222.50 319.25 223.93
  Q 324.98 226.48 331.24 227.61
  Q 331.72 227.70 331.72 228.18
  Q 331.69 230.25 331.07 231.53
  Q 327.31 239.22 324.22 247.21
  C 323.40 249.35 321.63 250.70 320.61 252.90
  C 318.10 258.27 314.76 262.82 311.49 267.73
  Q 310.78 268.80 309.44 270.23
  C 307.60 272.21 305.99 274.91 304.44 276.59
  Q 299.87 281.56 295.22 286.41"
/>
<path stroke="#92a7cf" vector-effect="non-scaling-stroke" d="
  M 295.22 286.41
  C 282.02 298.85 267.91 308.89 251.04 316.03"
/>
<path stroke="#94b0d5" vector-effect="non-scaling-stroke" d="
  M 251.04 316.03
  Q 245.41 319.06 239.51 320.38
  A 0.84 0.84 0.0 0 1 238.51 319.76
  Q 237.10 313.89 234.87 308.77
  C 234.53 307.99 234.08 307.78 233.39 307.34
  A 1.47 1.45 -84.2 0 1 232.82 306.63
  Q 231.46 302.81 228.66 300.09
  Q 227.11 298.59 225.66 296.68
  C 223.93 294.40 220.40 293.42 219.35 291.49"
/>
<path stroke="#9abbde" vector-effect="non-scaling-stroke" d="
  M 219.35 291.49
  Q 213.69 287.42 206.62 285.67
  A 0.46 0.44 -9.3 0 1 206.33 285.47
  Q 206.26 285.36 206.18 285.27
  Q 205.71 284.74 205.48 284.67
  Q 191.49 280.78 177.53 284.70
  Q 177.10 284.82 176.79 285.14
  Q 176.48 285.44 176.23 285.52
  Q 154.75 292.66 146.51 313.58
  A 2.01 1.97 80.8 0 1 145.96 314.36
  C 144.84 315.33 144.64 318.69 144.13 320.06
  Q 143.94 320.56 143.42 320.39
  L 135.41 317.71"
/>
<path stroke="#9dc2e3" vector-effect="non-scaling-stroke" d="
  M 135.41 317.71
  C 129.05 314.02 123.44 312.73 116.23 307.86
  C 114.70 306.83 112.61 306.17 110.98 304.92
  Q 107.50 302.25 107.45 302.21
  Q 98.57 296.46 94.49 292.49
  Q 90.99 289.10 88.79 287.26
  Q 87.29 286.01 85.90 284.14
  C 84.15 281.79 81.71 280.27 80.03 278.03
  Q 78.75 276.33 77.37 274.80"
/>
<path stroke="#a5d1f0" vector-effect="non-scaling-stroke" d="
  M 77.37 274.80
  Q 67.65 263.11 60.49 249.78
  C 59.66 248.23 59.18 246.18 58.04 244.48
  C 55.48 240.65 54.17 236.30 52.70 232.04
  A 1.12 1.11 72.5 0 1 53.45 230.59
  C 55.97 229.86 57.90 229.68 60.19 228.18
  C 62.48 226.68 65.24 225.61 67.26 224.28
  Q 84.86 212.73 87.95 192.74
  C 90.17 178.40 87.32 163.79 77.66 153.03
  A 1.69 1.67 -67.4 0 1 77.24 152.00
  Q 77.19 150.84 76.05 150.73
  Q 75.48 150.67 75.10 150.23
  Q 70.04 144.26 64.89 141.89
  Q 62.35 140.72 60.61 139.64
  C 57.33 137.60 53.96 137.28 50.43 136.09
  Q 49.91 135.91 50.11 135.40
  C 52.62 128.87 54.55 121.85 58.03 115.78
  C 60.07 112.23 61.37 108.41 63.65 105.04
  C 66.27 101.15 68.80 96.63 71.20 93.39
  Q 84.32 75.62 101.77 62.06"
/>
<path stroke="#2758a4" vector-effect="non-scaling-stroke" d="
  M 266.45 46.55
  Q 265.64 46.76 264.75 46.55
  Q 264.33 46.45 264.21 46.87
  L 263.33 50.21"
/>
<path stroke="#94b0d5" vector-effect="non-scaling-stroke" d="
  M 263.33 50.21
  Q 257.33 47.43 251.19 44.21
  Q 246.69 41.85 239.91 40.36
  Q 239.40 40.24 239.30 40.76
  Q 234.88 64.70 213.31 75.93
  Q 211.81 76.71 210.20 77.35
  Q 199.88 81.47 188.82 80.73"
/>
<path stroke="#4294d4" vector-effect="non-scaling-stroke" d="
  M 77.37 274.80
  Q 76.91 275.62 75.76 275.86
  Q 75.31 275.95 74.95 276.25
  Q 73.70 277.28 73.74 278.77"
/>
<path stroke="#387ec1" vector-effect="non-scaling-stroke" d="
  M 135.41 317.71
  Q 133.55 318.16 131.97 316.49
  Q 131.39 315.88 131.24 316.72
  L 131.02 318.03
  A 0.63 0.62 -4.8 0 1 130.60 318.52
  Q 129.29 318.96 129.09 320.54"
/>
<path stroke="#294598" vector-effect="non-scaling-stroke" d="
  M 305.04 77.09
  Q 304.10 77.08 303.64 77.36
  Q 303.36 77.53 303.04 77.54
  Q 302.13 77.59 301.53 78.14
  Q 301.18 78.45 301.54 78.75
  Q 304.50 81.20 302.02 81.09"
/>
<path stroke="#2758a4" vector-effect="non-scaling-stroke" d="
  M 254.00 320.33
  Q 253.01 319.65 252.53 319.99
  Q 252.34 320.13 252.14 320.00
  Q 251.06 319.26 251.65 318.25
  Q 251.85 317.90 251.57 317.61
  Q 250.89 316.93 251.04 316.03"
/>
<path stroke="#294598" vector-effect="non-scaling-stroke" d="
  M 297.35 291.26
  Q 296.82 290.02 295.67 289.73
  Q 295.09 289.59 295.29 289.03
  L 295.81 287.58
  Q 295.91 287.32 295.66 287.19
  Q 295.29 286.99 295.22 286.41"
/>
<path stroke="#2f6cb3" vector-effect="non-scaling-stroke" d="
  M 219.35 291.49
  Q 218.11 292.19 217.16 290.60
  A 1.03 0.99 80.1 0 0 216.49 290.11
  Q 215.46 289.88 214.93 289.17
  Q 214.40 288.46 213.88 289.17
  Q 213.20 290.09 213.94 291.11
  Q 214.15 291.41 213.79 291.38
  Q 212.84 291.30 212.37 292.06
  Q 212.00 292.64 212.68 292.74
  Q 214.17 292.95 214.21 294.48"
/>
<path stroke="#9dc2e3" vector-effect="non-scaling-stroke" d="
  M 167.45 139.06
  L 148.49 170.61"
/>
<path stroke="#a5d1f0" vector-effect="non-scaling-stroke" d="
  M 148.49 170.61
  Q 138.54 187.08 128.81 203.42
  C 125.81 208.46 116.28 220.71 130.28 220.97
  Q 141.64 221.19 153.09 221.10"
/>
<path stroke="#9dc2e3" vector-effect="non-scaling-stroke" d="
  M 153.09 221.10
  L 184.97 221.16"
/>
<path stroke="#9abbde" vector-effect="non-scaling-stroke" d="
  M 184.97 221.16
  Q 190.67 221.76 193.37 220.71
  Q 195.89 219.73 196.66 217.02
  Q 197.33 214.69 195.85 212.69
  Q 192.94 208.77 187.01 209.84"
/>
<path stroke="#9dc2e3" vector-effect="non-scaling-stroke" d="
  M 187.01 209.84
  L 148.64 209.76"
/>
<path stroke="#a5d1f0" vector-effect="non-scaling-stroke" d="
  M 148.64 209.76
  L 140.57 209.70
  A 0.76 0.76 0.0 0 1 139.91 208.56
  L 147.99 194.29"
/>
<path stroke="#9dc2e3" vector-effect="non-scaling-stroke" d="
  M 147.99 194.29
  L 166.32 164.10"
/>
<path stroke="#9abbde" vector-effect="non-scaling-stroke" d="
  M 166.32 164.10
  L 190.54 123.65
  Q 191.37 122.26 192.18 123.66
  L 204.40 144.61"
/>
<path stroke="#94b0d5" vector-effect="non-scaling-stroke" d="
  M 204.40 144.61
  L 215.80 164.49"
/>
<path stroke="#92a7cf" vector-effect="non-scaling-stroke" d="
  M 215.80 164.49
  L 238.69 204.22"
/>
<path stroke="#969dc9" vector-effect="non-scaling-stroke" d="
  M 238.69 204.22
  L 249.53 222.50
  Q 249.80 222.96 250.30 223.14
  Q 256.18 225.26 258.36 219.27
  Q 259.31 216.66 257.92 214.08
  Q 249.04 197.63 238.38 180.49"
/>
<path stroke="#92a7cf" vector-effect="non-scaling-stroke" d="
  M 238.38 180.49
  Q 237.18 177.37 234.74 173.25
  Q 225.83 158.18 217.13 143.04"
/>
<path stroke="#94b0d5" vector-effect="non-scaling-stroke" d="
  M 217.13 143.04
  L 205.04 122.08"
/>
<path stroke="#9abbde" vector-effect="non-scaling-stroke" d="
  M 205.04 122.08
  C 203.87 119.06 201.59 116.48 200.32 114.05
  Q 199.10 111.72 197.93 109.42
  Q 196.49 106.62 194.71 105.52
  Q 191.22 103.36 188.22 105.59
  Q 186.81 106.64 184.67 110.21
  Q 176.01 124.64 167.45 139.06"
/>
<path stroke="#2f6cb3" vector-effect="non-scaling-stroke" d="
  M 205.04 122.08
  Q 202.99 122.35 203.90 124.23
  Q 204.09 124.62 204.09 125.05
  L 204.40 144.61"
/>
<path stroke="#387ec1" vector-effect="non-scaling-stroke" d="
  M 166.32 164.10
  Q 164.41 161.39 166.00 158.95
  Q 166.29 158.50 166.25 157.96
  Q 165.48 148.35 167.45 139.06"
/>
<path stroke="#4294d4" vector-effect="non-scaling-stroke" d="
  M 147.99 194.29
  L 148.49 170.61"
/>
<path stroke="#2758a4" vector-effect="non-scaling-stroke" d="
  M 217.13 143.04
  L 216.30 142.71
  A 0.51 0.51 0.0 0 0 215.60 143.24
  Q 216.69 153.52 215.80 164.49"
/>
<path stroke="#4294d4" vector-effect="non-scaling-stroke" d="
  M 148.64 209.76
  Q 147.96 212.85 148.90 214.76
  Q 150.01 217.01 149.56 219.17
  Q 149.48 219.59 149.87 219.75
  L 153.09 221.10"
/>
<path stroke="#294598" vector-effect="non-scaling-stroke" d="
  M 238.38 180.49
  Q 237.49 190.60 238.03 199.92
  Q 238.05 200.35 237.80 200.69
  L 237.61 200.94
  Q 237.33 201.33 237.63 201.70
  Q 238.47 202.75 238.69 204.22"
/>
<path stroke="#387ec1" vector-effect="non-scaling-stroke" d="
  M 187.01 209.84
  Q 184.65 210.48 182.87 211.94
  Q 182.47 212.27 182.41 212.77
  Q 182.06 215.41 182.09 218.12
  Q 182.10 219.50 182.76 220.20
  Q 183.62 221.12 184.97 221.16"
/>
<path stroke="#9abbde" vector-effect="non-scaling-stroke" d="
  M 183.44 195.08
  C 189.96 199.38 195.89 198.15 201.76 193.70
  Q 204.33 191.77 205.44 189.26
  C 212.27 173.86 197.60 160.74 182.88 168.56
  C 180.35 169.90 176.69 175.20 176.11 177.86
  Q 173.72 188.67 183.44 195.08"
/>
<path stroke="#9dc2e3" vector-effect="non-scaling-stroke" d="
  M 137.07 254.22
  L 196.49 254.23"
/>
<path stroke="#9abbde" vector-effect="non-scaling-stroke" d="
  M 196.49 254.23
  L 215.53 254.20"
/>
<path stroke="#92a7cf" vector-effect="non-scaling-stroke" d="
  M 215.53 254.20
  L 267.78 254.20"
/>
<path stroke="#969dc9" vector-effect="non-scaling-stroke" d="
  M 267.78 254.20
  L 291.87 254.20
  Q 292.40 254.20 292.78 253.82
  Q 296.48 250.04 294.28 245.05
  A 2.82 2.81 78.1 0 0 291.70 243.36
  L 268.45 243.27"
/>
<path stroke="#92a7cf" vector-effect="non-scaling-stroke" d="
  M 268.45 243.27
  L 219.57 243.28"
/>
<path stroke="#9abbde" vector-effect="non-scaling-stroke" d="
  M 219.57 243.28
  L 197.47 243.25"
/>
<path stroke="#9dc2e3" vector-effect="non-scaling-stroke" d="
  M 197.47 243.25
  L 135.57 243.26"
/>
<path stroke="#a5d1f0" vector-effect="non-scaling-stroke" d="
  M 135.57 243.26
  Q 118.56 243.16 101.05 243.25
  C 98.40 243.27 97.20 244.58 96.75 247.02
  Q 95.96 251.37 99.16 253.91
  Q 99.56 254.22 100.06 254.22
  L 137.07 254.22"
/>
<path stroke="#4294d4" vector-effect="non-scaling-stroke" d="
  M 135.57 243.26
  Q 136.53 245.61 135.96 247.63
  Q 135.89 247.89 136.15 247.89
  L 136.50 247.91
  Q 137.04 247.93 137.04 248.46
  L 137.07 254.22"
/>
<path stroke="#387ec1" vector-effect="non-scaling-stroke" d="
  M 197.47 243.25
  C 193.19 243.75 194.94 247.57 195.74 250.07
  Q 195.86 250.46 195.63 250.80
  L 194.92 251.88
  Q 194.64 252.31 195.07 252.60
  Q 196.01 253.21 196.49 254.23"
/>
<path stroke="#2d63ad" vector-effect="non-scaling-stroke" d="
  M 219.57 243.28
  L 216.57 244.42
  A 1.08 1.07 -10.0 0 0 215.87 245.41
  L 215.72 253.32
  Q 215.72 253.37 215.77 253.40
  Q 215.89 253.46 216.00 253.51
  Q 216.20 253.61 216.09 253.80
  Q 215.95 254.04 215.53 254.20"
/>
<path stroke="#294598" vector-effect="non-scaling-stroke" d="
  M 268.45 243.27
  L 268.08 252.46
  Q 268.05 252.97 267.74 253.38
  Q 267.19 254.09 267.78 254.20"
/>
<path stroke="#9abbde" vector-effect="non-scaling-stroke" d="
  M 202.03 181.92
  A 10.60 10.60 0.0 0 0 191.43 171.32
  A 10.60 10.60 0.0 0 0 180.83 181.92
  A 10.60 10.60 0.0 0 0 191.43 192.52
  A 10.60 10.60 0.0 0 0 202.03 181.92"
/>
</g>
<path fill="#ffffff" d="
  M 0.00 0.00
  L 388.00 0.00
  L 388.00 372.00
  L 0.00 372.00
  L 0.00 0.00
  Z
  M 98.94 57.82
  Q 78.23 73.47 63.81 95.04
  C 60.83 99.50 57.34 105.09 54.81 110.52
  C 51.97 116.59 49.23 122.02 47.16 128.76
  Q 45.40 134.54 43.08 140.00
  A 0.48 0.48 0.0 0 0 43.48 140.66
  C 48.80 141.12 57.09 142.57 61.41 145.91
  C 63.64 147.64 66.30 148.93 68.15 150.56
  Q 73.62 155.39 77.65 161.48
  C 79.28 163.95 80.03 167.04 81.41 169.85
  A 1.35 1.34 39.6 0 1 81.50 170.76
  Q 81.24 171.82 82.10 172.26
  Q 82.52 172.48 82.63 172.94
  Q 86.49 189.45 79.04 203.49
  Q 68.84 222.73 46.95 226.71
  Q 45.63 226.95 45.99 228.24
  C 47.28 232.92 48.87 237.90 51.30 242.25
  C 52.95 245.19 54.02 248.76 55.49 251.32
  Q 57.38 254.61 59.22 257.94
  C 61.84 262.67 65.09 266.89 68.04 271.47
  Q 68.88 272.77 71.00 274.98
  Q 72.59 276.65 73.74 278.77
  Q 74.40 280.00 76.68 281.58
  Q 78.47 282.82 80.11 286.20
  A 1.74 1.70 -89.2 0 0 80.82 286.95
  Q 84.51 288.98 86.59 292.64
  Q 86.88 293.15 87.40 293.42
  Q 90.46 294.98 92.68 297.53
  C 94.57 299.71 96.78 300.57 98.90 302.39
  Q 101.79 304.87 103.58 305.98
  Q 106.23 307.61 108.76 309.42
  Q 111.68 311.52 113.96 312.75
  Q 121.49 316.81 129.09 320.54
  Q 131.72 321.16 133.98 322.25
  Q 138.60 324.47 138.62 324.48
  Q 142.97 326.15 146.94 326.90
  Q 148.62 327.21 148.76 325.51
  Q 149.18 320.28 150.79 315.70
  C 151.36 314.07 152.61 312.81 153.37 311.19
  C 156.78 304.02 162.24 298.38 169.01 294.28
  C 170.51 293.37 172.55 292.76 174.27 291.73
  C 182.35 286.87 195.66 287.47 204.51 289.71
  Q 206.72 290.26 214.21 294.48
  C 217.72 295.72 218.77 298.18 221.49 299.95
  C 224.48 301.91 224.90 304.29 226.89 306.51
  Q 228.95 308.80 229.53 309.93
  Q 232.34 315.37 233.46 321.45
  A 0.31 0.30 -18.8 0 0 233.90 321.66
  Q 234.13 321.55 234.26 321.72
  Q 234.57 322.14 234.59 322.39
  L 234.95 326.50
  Q 235.02 327.31 235.81 327.10
  Q 245.21 324.62 254.00 320.33
  Q 278.22 309.70 297.35 291.26
  Q 309.38 279.82 314.12 272.60
  Q 315.49 270.51 316.63 269.11
  Q 318.31 267.05 319.09 265.65
  C 321.24 261.79 323.95 258.17 325.86 254.44
  C 328.78 248.72 331.50 243.58 333.73 237.37
  C 335.31 232.97 337.62 229.59 338.29 224.28
  Q 338.35 223.79 337.86 223.75
  Q 335.04 223.53 332.29 223.11
  Q 330.02 222.76 327.00 221.35
  Q 324.77 220.31 322.39 219.57
  C 320.38 218.94 318.83 217.83 317.00 216.91
  Q 315.15 215.98 313.62 214.35
  C 311.64 212.23 309.36 210.96 307.64 208.77
  Q 304.80 205.13 302.47 201.17
  C 300.22 197.34 299.10 192.68 297.86 188.32
  C 296.71 184.28 296.33 179.43 296.98 175.75
  Q 298.19 168.88 301.91 160.01
  C 303.09 157.21 305.27 155.41 306.96 152.83
  Q 308.35 150.72 310.17 149.23
  C 312.61 147.26 314.36 145.00 317.12 143.57
  Q 321.14 141.48 325.25 139.54
  C 329.48 137.53 333.42 137.20 337.99 136.92
  Q 338.57 136.88 338.46 136.31
  C 337.31 130.50 334.55 125.48 332.63 120.05
  Q 331.23 116.07 329.14 112.41
  C 326.80 108.32 325.01 103.49 322.02 99.54
  C 320.42 97.41 319.42 94.88 317.75 92.75
  Q 314.52 88.65 314.48 88.59
  Q 310.16 82.48 305.04 77.09
  C 300.23 71.81 293.69 65.14 286.95 60.14
  Q 284.36 58.23 281.68 56.08
  Q 279.66 54.46 277.42 53.12
  Q 275.50 51.96 273.14 50.25
  Q 270.12 48.07 266.45 46.55
  Q 260.36 42.30 253.14 39.91
  C 251.38 39.32 250.26 38.01 248.39 37.38
  Q 242.13 35.26 235.61 33.44
  Q 235.05 33.29 235.11 33.87
  Q 235.43 37.24 234.43 40.33
  Q 233.04 44.67 232.99 44.83
  Q 229.69 56.82 220.33 65.06
  C 210.94 73.32 199.56 76.52 187.36 75.62
  Q 180.05 74.80 173.26 71.99
  C 169.62 70.49 166.19 67.35 162.49 65.24
  A 1.61 1.58 -89.5 0 1 161.91 64.64
  C 160.27 61.69 157.62 60.38 156.07 57.70
  C 153.25 52.85 150.35 48.36 149.36 42.72
  Q 148.58 38.28 147.91 33.81
  Q 147.85 33.35 147.40 33.47
  Q 140.99 35.17 134.74 37.41
  C 132.32 38.28 130.05 39.82 127.53 40.88
  C 117.33 45.16 107.78 51.20 98.94 57.82
  Z"
/>
<path fill="#3a84c6" d="
  M 187.36 75.62
  Q 187.36 77.78 186.69 79.08
  A 0.59 0.58 26.3 0 0 186.96 79.87
  L 188.82 80.73
  C 179.00 80.74 172.55 77.70 163.17 72.00
  C 161.15 70.78 160.26 68.73 158.00 67.46
  C 155.17 65.86 154.64 62.88 152.38 60.92
  Q 151.14 59.85 150.67 59.06
  Q 148.13 54.74 146.58 49.93
  Q 146.43 49.47 145.96 49.36
  Q 145.41 49.23 145.32 48.78
  Q 144.47 44.75 143.48 40.77
  Q 143.37 40.30 142.90 40.42
  Q 135.00 42.44 131.04 44.60
  Q 125.64 47.53 120.06 50.08
  Q 115.55 52.13 101.77 62.06
  L 99.48 61.80
  A 1.22 1.13 35.2 0 1 99.01 59.57
  Q 99.47 59.38 98.94 57.82
  C 107.78 51.20 117.33 45.16 127.53 40.88
  C 130.05 39.82 132.32 38.28 134.74 37.41
  Q 140.99 35.17 147.40 33.47
  Q 147.85 33.35 147.91 33.81
  Q 148.58 38.28 149.36 42.72
  C 150.35 48.36 153.25 52.85 156.07 57.70
  C 157.62 60.38 160.27 61.69 161.91 64.64
  A 1.61 1.58 -89.5 0 0 162.49 65.24
  C 166.19 67.35 169.62 70.49 173.26 71.99
  Q 180.05 74.80 187.36 75.62
  Z"
/>
<path fill="#2960aa" d="
  M 266.45 46.55
  Q 265.64 46.76 264.75 46.55
  Q 264.33 46.45 264.21 46.87
  L 263.33 50.21
  Q 257.33 47.43 251.19 44.21
  Q 246.69 41.85 239.91 40.36
  Q 239.40 40.24 239.30 40.76
  Q 234.88 64.70 213.31 75.93
  Q 211.81 76.71 210.20 77.35
  Q 199.88 81.47 188.82 80.73
  L 186.96 79.87
  A 0.59 0.58 26.3 0 1 186.69 79.08
  Q 187.36 77.78 187.36 75.62
  C 199.56 76.52 210.94 73.32 220.33 65.06
  Q 229.69 56.82 232.99 44.83
  Q 233.04 44.67 234.43 40.33
  Q 235.43 37.24 235.11 33.87
  Q 235.05 33.29 235.61 33.44
  Q 242.13 35.26 248.39 37.38
  C 250.26 38.01 251.38 39.32 253.14 39.91
  Q 260.36 42.30 266.45 46.55
  Z"
/>
<path fill="#ffffff" d="
  M 188.82 80.73
  Q 199.88 81.47 210.20 77.35
  Q 211.81 76.71 213.31 75.93
  Q 234.88 64.70 239.30 40.76
  Q 239.40 40.24 239.91 40.36
  Q 246.69 41.85 251.19 44.21
  Q 257.33 47.43 263.33 50.21
  Q 267.24 52.92 271.25 55.18
  Q 272.39 55.82 275.88 58.31
  C 277.93 59.78 280.95 61.19 282.70 63.30
  Q 283.60 64.38 284.81 65.14
  C 291.08 69.08 296.81 75.70 302.02 81.09
  C 303.21 83.44 305.92 85.10 307.60 87.80
  C 309.48 90.80 311.94 92.89 313.81 96.00
  Q 315.39 98.65 316.96 100.81
  Q 319.64 104.48 321.23 108.80
  C 321.80 110.35 323.40 111.33 324.13 113.09
  Q 325.86 117.26 327.52 121.44
  C 328.56 124.05 331.05 127.73 331.67 131.64
  Q 331.75 132.14 331.26 132.29
  Q 324.17 134.52 317.34 137.49
  C 314.75 138.62 313.15 140.48 310.80 142.08
  C 307.63 144.26 305.98 146.56 303.32 149.11
  C 301.33 151.01 300.60 153.26 299.01 155.45
  Q 296.83 158.46 296.08 160.39
  Q 288.23 180.72 296.48 200.97
  C 297.55 203.60 299.68 205.70 301.07 208.40
  C 302.58 211.32 304.69 212.46 306.67 214.91
  Q 308.18 216.79 309.94 217.90
  C 313.10 219.89 316.05 222.50 319.25 223.93
  Q 324.98 226.48 331.24 227.61
  Q 331.72 227.70 331.72 228.18
  Q 331.69 230.25 331.07 231.53
  Q 327.31 239.22 324.22 247.21
  C 323.40 249.35 321.63 250.70 320.61 252.90
  C 318.10 258.27 314.76 262.82 311.49 267.73
  Q 310.78 268.80 309.44 270.23
  C 307.60 272.21 305.99 274.91 304.44 276.59
  Q 299.87 281.56 295.22 286.41
  C 282.02 298.85 267.91 308.89 251.04 316.03
  Q 245.41 319.06 239.51 320.38
  A 0.84 0.84 0.0 0 1 238.51 319.76
  Q 237.10 313.89 234.87 308.77
  C 234.53 307.99 234.08 307.78 233.39 307.34
  A 1.47 1.45 -84.2 0 1 232.82 306.63
  Q 231.46 302.81 228.66 300.09
  Q 227.11 298.59 225.66 296.68
  C 223.93 294.40 220.40 293.42 219.35 291.49
  Q 213.69 287.42 206.62 285.67
  A 0.46 0.44 -9.3 0 1 206.33 285.47
  Q 206.26 285.36 206.18 285.27
  Q 205.71 284.74 205.48 284.67
  Q 191.49 280.78 177.53 284.70
  Q 177.10 284.82 176.79 285.14
  Q 176.48 285.44 176.23 285.52
  Q 154.75 292.66 146.51 313.58
  A 2.01 1.97 80.8 0 1 145.96 314.36
  C 144.84 315.33 144.64 318.69 144.13 320.06
  Q 143.94 320.56 143.42 320.39
  L 135.41 317.71
  C 129.05 314.02 123.44 312.73 116.23 307.86
  C 114.70 306.83 112.61 306.17 110.98 304.92
  Q 107.50 302.25 107.45 302.21
  Q 98.57 296.46 94.49 292.49
  Q 90.99 289.10 88.79 287.26
  Q 87.29 286.01 85.90 284.14
  C 84.15 281.79 81.71 280.27 80.03 278.03
  Q 78.75 276.33 77.37 274.80
  Q 67.65 263.11 60.49 249.78
  C 59.66 248.23 59.18 246.18 58.04 244.48
  C 55.48 240.65 54.17 236.30 52.70 232.04
  A 1.12 1.11 72.5 0 1 53.45 230.59
  C 55.97 229.86 57.90 229.68 60.19 228.18
  C 62.48 226.68 65.24 225.61 67.26 224.28
  Q 84.86 212.73 87.95 192.74
  C 90.17 178.40 87.32 163.79 77.66 153.03
  A 1.69 1.67 -67.4 0 1 77.24 152.00
  Q 77.19 150.84 76.05 150.73
  Q 75.48 150.67 75.10 150.23
  Q 70.04 144.26 64.89 141.89
  Q 62.35 140.72 60.61 139.64
  C 57.33 137.60 53.96 137.28 50.43 136.09
  Q 49.91 135.91 50.11 135.40
  C 52.62 128.87 54.55 121.85 58.03 115.78
  C 60.07 112.23 61.37 108.41 63.65 105.04
  C 66.27 101.15 68.80 96.63 71.20 93.39
  Q 84.32 75.62 101.77 62.06
  Q 115.55 52.13 120.06 50.08
  Q 125.64 47.53 131.04 44.60
  Q 135.00 42.44 142.90 40.42
  Q 143.37 40.30 143.48 40.77
  Q 144.47 44.75 145.32 48.78
  Q 145.41 49.23 145.96 49.36
  Q 146.43 49.47 146.58 49.93
  Q 148.13 54.74 150.67 59.06
  Q 151.14 59.85 152.38 60.92
  C 154.64 62.88 155.17 65.86 158.00 67.46
  C 160.26 68.73 161.15 70.78 163.17 72.00
  C 172.55 77.70 179.00 80.74 188.82 80.73
  Z
  M 167.45 139.06
  L 148.49 170.61
  Q 138.54 187.08 128.81 203.42
  C 125.81 208.46 116.28 220.71 130.28 220.97
  Q 141.64 221.19 153.09 221.10
  L 184.97 221.16
  Q 190.67 221.76 193.37 220.71
  Q 195.89 219.73 196.66 217.02
  Q 197.33 214.69 195.85 212.69
  Q 192.94 208.77 187.01 209.84
  L 148.64 209.76
  L 140.57 209.70
  A 0.76 0.76 0.0 0 1 139.91 208.56
  L 147.99 194.29
  L 166.32 164.10
  L 190.54 123.65
  Q 191.37 122.26 192.18 123.66
  L 204.40 144.61
  L 215.80 164.49
  L 238.69 204.22
  L 249.53 222.50
  Q 249.80 222.96 250.30 223.14
  Q 256.18 225.26 258.36 219.27
  Q 259.31 216.66 257.92 214.08
  Q 249.04 197.63 238.38 180.49
  Q 237.18 177.37 234.74 173.25
  Q 225.83 158.18 217.13 143.04
  L 205.04 122.08
  C 203.87 119.06 201.59 116.48 200.32 114.05
  Q 199.10 111.72 197.93 109.42
  Q 196.49 106.62 194.71 105.52
  Q 191.22 103.36 188.22 105.59
  Q 186.81 106.64 184.67 110.21
  Q 176.01 124.64 167.45 139.06
  Z
  M 183.44 195.08
  C 189.96 199.38 195.89 198.15 201.76 193.70
  Q 204.33 191.77 205.44 189.26
  C 212.27 173.86 197.60 160.74 182.88 168.56
  C 180.35 169.90 176.69 175.20 176.11 177.86
  Q 173.72 188.67 183.44 195.08
  Z
  M 137.07 254.22
  L 196.49 254.23
  L 215.53 254.20
  L 267.78 254.20
  L 291.87 254.20
  Q 292.40 254.20 292.78 253.82
  Q 296.48 250.04 294.28 245.05
  A 2.82 2.81 78.1 0 0 291.70 243.36
  L 268.45 243.27
  L 219.57 243.28
  L 197.47 243.25
  L 135.57 243.26
  Q 118.56 243.16 101.05 243.25
  C 98.40 243.27 97.20 244.58 96.75 247.02
  Q 95.96 251.37 99.16 253.91
  Q 99.56 254.22 100.06 254.22
  L 137.07 254.22
  Z"
/>
<path fill="#254f9e" d="
  M 266.45 46.55
  Q 270.12 48.07 273.14 50.25
  Q 275.50 51.96 277.42 53.12
  Q 279.66 54.46 281.68 56.08
  Q 284.36 58.23 286.95 60.14
  C 293.69 65.14 300.23 71.81 305.04 77.09
  Q 304.10 77.08 303.64 77.36
  Q 303.36 77.53 303.04 77.54
  Q 302.13 77.59 301.53 78.14
  Q 301.18 78.45 301.54 78.75
  Q 304.50 81.20 302.02 81.09
  C 296.81 75.70 291.08 69.08 284.81 65.14
  Q 283.60 64.38 282.70 63.30
  C 280.95 61.19 277.93 59.78 275.88 58.31
  Q 272.39 55.82 271.25 55.18
  Q 267.24 52.92 263.33 50.21
  L 264.21 46.87
  Q 264.33 46.45 264.75 46.55
  Q 265.64 46.76 266.45 46.55
  Z"
/>
<path fill="#4aa3e1" d="
  M 98.94 57.82
  Q 99.47 59.38 99.01 59.57
  A 1.22 1.13 35.2 0 0 99.48 61.80
  L 101.77 62.06
  Q 84.32 75.62 71.20 93.39
  C 68.80 96.63 66.27 101.15 63.65 105.04
  C 61.37 108.41 60.07 112.23 58.03 115.78
  C 54.55 121.85 52.62 128.87 50.11 135.40
  Q 49.91 135.91 50.43 136.09
  C 53.96 137.28 57.33 137.60 60.61 139.64
  Q 62.35 140.72 64.89 141.89
  Q 70.04 144.26 75.10 150.23
  Q 75.48 150.67 76.05 150.73
  Q 77.19 150.84 77.24 152.00
  A 1.69 1.67 -67.4 0 0 77.66 153.03
  C 87.32 163.79 90.17 178.40 87.95 192.74
  Q 84.86 212.73 67.26 224.28
  C 65.24 225.61 62.48 226.68 60.19 228.18
  C 57.90 229.68 55.97 229.86 53.45 230.59
  A 1.12 1.11 72.5 0 0 52.70 232.04
  C 54.17 236.30 55.48 240.65 58.04 244.48
  C 59.18 246.18 59.66 248.23 60.49 249.78
  Q 67.65 263.11 77.37 274.80
  Q 76.91 275.62 75.76 275.86
  Q 75.31 275.95 74.95 276.25
  Q 73.70 277.28 73.74 278.77
  Q 72.59 276.65 71.00 274.98
  Q 68.88 272.77 68.04 271.47
  C 65.09 266.89 61.84 262.67 59.22 257.94
  Q 57.38 254.61 55.49 251.32
  C 54.02 248.76 52.95 245.19 51.30 242.25
  C 48.87 237.90 47.28 232.92 45.99 228.24
  Q 45.63 226.95 46.95 226.71
  Q 68.84 222.73 79.04 203.49
  Q 86.49 189.45 82.63 172.94
  Q 82.52 172.48 82.10 172.26
  Q 81.24 171.82 81.50 170.76
  A 1.35 1.34 39.6 0 0 81.41 169.85
  C 80.03 167.04 79.28 163.95 77.65 161.48
  Q 73.62 155.39 68.15 150.56
  C 66.30 148.93 63.64 147.64 61.41 145.91
  C 57.09 142.57 48.80 141.12 43.48 140.66
  A 0.48 0.48 0.0 0 1 43.08 140.00
  Q 45.40 134.54 47.16 128.76
  C 49.23 122.02 51.97 116.59 54.81 110.52
  C 57.34 105.09 60.83 99.50 63.81 95.04
  Q 78.23 73.47 98.94 57.82
  Z"
/>
<path fill="#2c3b92" d="
  M 305.04 77.09
  Q 310.16 82.48 314.48 88.59
  Q 314.52 88.65 317.75 92.75
  C 319.42 94.88 320.42 97.41 322.02 99.54
  C 325.01 103.49 326.80 108.32 329.14 112.41
  Q 331.23 116.07 332.63 120.05
  C 334.55 125.48 337.31 130.50 338.46 136.31
  Q 338.57 136.88 337.99 136.92
  C 333.42 137.20 329.48 137.53 325.25 139.54
  Q 321.14 141.48 317.12 143.57
  C 314.36 145.00 312.61 147.26 310.17 149.23
  Q 308.35 150.72 306.96 152.83
  C 305.27 155.41 303.09 157.21 301.91 160.01
  Q 298.19 168.88 296.98 175.75
  C 296.33 179.43 296.71 184.28 297.86 188.32
  C 299.10 192.68 300.22 197.34 302.47 201.17
  Q 304.80 205.13 307.64 208.77
  C 309.36 210.96 311.64 212.23 313.62 214.35
  Q 315.15 215.98 317.00 216.91
  C 318.83 217.83 320.38 218.94 322.39 219.57
  Q 324.77 220.31 327.00 221.35
  Q 330.02 222.76 332.29 223.11
  Q 335.04 223.53 337.86 223.75
  Q 338.35 223.79 338.29 224.28
  C 337.62 229.59 335.31 232.97 333.73 237.37
  C 331.50 243.58 328.78 248.72 325.86 254.44
  C 323.95 258.17 321.24 261.79 319.09 265.65
  Q 318.31 267.05 316.63 269.11
  Q 315.49 270.51 314.12 272.60
  Q 309.38 279.82 297.35 291.26
  Q 296.82 290.02 295.67 289.73
  Q 295.09 289.59 295.29 289.03
  L 295.81 287.58
  Q 295.91 287.32 295.66 287.19
  Q 295.29 286.99 295.22 286.41
  Q 299.87 281.56 304.44 276.59
  C 305.99 274.91 307.60 272.21 309.44 270.23
  Q 310.78 268.80 311.49 267.73
  C 314.76 262.82 318.10 258.27 320.61 252.90
  C 321.63 250.70 323.40 249.35 324.22 247.21
  Q 327.31 239.22 331.07 231.53
  Q 331.69 230.25 331.72 228.18
  Q 331.72 227.70 331.24 227.61
  Q 324.98 226.48 319.25 223.93
  C 316.05 222.50 313.10 219.89 309.94 217.90
  Q 308.18 216.79 306.67 214.91
  C 304.69 212.46 302.58 211.32 301.07 208.40
  C 299.68 205.70 297.55 203.60 296.48 200.97
  Q 288.23 180.72 296.08 160.39
  Q 296.83 158.46 299.01 155.45
  C 300.60 153.26 301.33 151.01 303.32 149.11
  C 305.98 146.56 307.63 144.26 310.80 142.08
  C 313.15 140.48 314.75 138.62 317.34 137.49
  Q 324.17 134.52 331.26 132.29
  Q 331.75 132.14 331.67 131.64
  C 331.05 127.73 328.56 124.05 327.52 121.44
  Q 325.86 117.26 324.13 113.09
  C 323.40 111.33 321.80 110.35 321.23 108.80
  Q 319.64 104.48 316.96 100.81
  Q 315.39 98.65 313.81 96.00
  C 311.94 92.89 309.48 90.80 307.60 87.80
  C 305.92 85.10 303.21 83.44 302.02 81.09
  Q 304.50 81.20 301.54 78.75
  Q 301.18 78.45 301.53 78.14
  Q 302.13 77.59 303.04 77.54
  Q 303.36 77.53 303.64 77.36
  Q 304.10 77.08 305.04 77.09
  Z"
/>
<path fill="#3577bc" d="
  M 205.04 122.08
  Q 202.99 122.35 203.90 124.23
  Q 204.09 124.62 204.09 125.05
  L 204.40 144.61
  L 192.18 123.66
  Q 191.37 122.26 190.54 123.65
  L 166.32 164.10
  Q 164.41 161.39 166.00 158.95
  Q 166.29 158.50 166.25 157.96
  Q 165.48 148.35 167.45 139.06
  Q 176.01 124.64 184.67 110.21
  Q 186.81 106.64 188.22 105.59
  Q 191.22 103.36 194.71 105.52
  Q 196.49 106.62 197.93 109.42
  Q 199.10 111.72 200.32 114.05
  C 201.59 116.48 203.87 119.06 205.04 122.08
  Z"
/>
<path fill="#2960aa" d="
  M 205.04 122.08
  L 217.13 143.04
  L 216.30 142.71
  A 0.51 0.51 0.0 0 0 215.60 143.24
  Q 216.69 153.52 215.80 164.49
  L 204.40 144.61
  L 204.09 125.05
  Q 204.09 124.62 203.90 124.23
  Q 202.99 122.35 205.04 122.08
  Z"
/>
<path fill="#3a84c6" d="
  M 167.45 139.06
  Q 165.48 148.35 166.25 157.96
  Q 166.29 158.50 166.00 158.95
  Q 164.41 161.39 166.32 164.10
  L 147.99 194.29
  L 148.49 170.61
  L 167.45 139.06
  Z"
/>
<path fill="#254f9e" d="
  M 217.13 143.04
  Q 225.83 158.18 234.74 173.25
  Q 237.18 177.37 238.38 180.49
  Q 237.49 190.60 238.03 199.92
  Q 238.05 200.35 237.80 200.69
  L 237.61 200.94
  Q 237.33 201.33 237.63 201.70
  Q 238.47 202.75 238.69 204.22
  L 215.80 164.49
  Q 216.69 153.52 215.60 143.24
  A 0.51 0.51 0.0 0 1 216.30 142.71
  L 217.13 143.04
  Z"
/>
<path fill="#3577bc" d="
  M 183.44 195.08
  Q 173.72 188.67 176.11 177.86
  C 176.69 175.20 180.35 169.90 182.88 168.56
  C 197.60 160.74 212.27 173.86 205.44 189.26
  Q 204.33 191.77 201.76 193.70
  C 195.89 198.15 189.96 199.38 183.44 195.08
  Z
  M 202.03 181.92
  A 10.60 10.60 0.0 0 0 191.43 171.32
  A 10.60 10.60 0.0 0 0 180.83 181.92
  A 10.60 10.60 0.0 0 0 191.43 192.52
  A 10.60 10.60 0.0 0 0 202.03 181.92
  Z"
/>
<path fill="#4aa3e1" d="
  M 148.49 170.61
  L 147.99 194.29
  L 139.91 208.56
  A 0.76 0.76 0.0 0 0 140.57 209.70
  L 148.64 209.76
  Q 147.96 212.85 148.90 214.76
  Q 150.01 217.01 149.56 219.17
  Q 149.48 219.59 149.87 219.75
  L 153.09 221.10
  Q 141.64 221.19 130.28 220.97
  C 116.28 220.71 125.81 208.46 128.81 203.42
  Q 138.54 187.08 148.49 170.61
  Z"
/>
<circle fill="#ffffff" cx="191.43" cy="181.92" r="10.60"/>
<path fill="#2c3b92" d="
  M 238.38 180.49
  Q 249.04 197.63 257.92 214.08
  Q 259.31 216.66 258.36 219.27
  Q 256.18 225.26 250.30 223.14
  Q 249.80 222.96 249.53 222.50
  L 238.69 204.22
  Q 238.47 202.75 237.63 201.70
  Q 237.33 201.33 237.61 200.94
  L 237.80 200.69
  Q 238.05 200.35 238.03 199.92
  Q 237.49 190.60 238.38 180.49
  Z"
/>
<path fill="#3a84c6" d="
  M 148.64 209.76
  L 187.01 209.84
  Q 184.65 210.48 182.87 211.94
  Q 182.47 212.27 182.41 212.77
  Q 182.06 215.41 182.09 218.12
  Q 182.10 219.50 182.76 220.20
  Q 183.62 221.12 184.97 221.16
  L 153.09 221.10
  L 149.87 219.75
  Q 149.48 219.59 149.56 219.17
  Q 150.01 217.01 148.90 214.76
  Q 147.96 212.85 148.64 209.76
  Z"
/>
<path fill="#3577bc" d="
  M 187.01 209.84
  Q 192.94 208.77 195.85 212.69
  Q 197.33 214.69 196.66 217.02
  Q 195.89 219.73 193.37 220.71
  Q 190.67 221.76 184.97 221.16
  Q 183.62 221.12 182.76 220.20
  Q 182.10 219.50 182.09 218.12
  Q 182.06 215.41 182.41 212.77
  Q 182.47 212.27 182.87 211.94
  Q 184.65 210.48 187.01 209.84
  Z"
/>
<path fill="#4aa3e1" d="
  M 135.57 243.26
  Q 136.53 245.61 135.96 247.63
  Q 135.89 247.89 136.15 247.89
  L 136.50 247.91
  Q 137.04 247.93 137.04 248.46
  L 137.07 254.22
  L 100.06 254.22
  Q 99.56 254.22 99.16 253.91
  Q 95.96 251.37 96.75 247.02
  C 97.20 244.58 98.40 243.27 101.05 243.25
  Q 118.56 243.16 135.57 243.26
  Z"
/>
<path fill="#3a84c6" d="
  M 135.57 243.26
  L 197.47 243.25
  C 193.19 243.75 194.94 247.57 195.74 250.07
  Q 195.86 250.46 195.63 250.80
  L 194.92 251.88
  Q 194.64 252.31 195.07 252.60
  Q 196.01 253.21 196.49 254.23
  L 137.07 254.22
  L 137.04 248.46
  Q 137.04 247.93 136.50 247.91
  L 136.15 247.89
  Q 135.89 247.89 135.96 247.63
  Q 136.53 245.61 135.57 243.26
  Z"
/>
<path fill="#3577bc" d="
  M 197.47 243.25
  L 219.57 243.28
  L 216.57 244.42
  A 1.08 1.07 -10.0 0 0 215.87 245.41
  L 215.72 253.32
  Q 215.72 253.37 215.77 253.40
  Q 215.89 253.46 216.00 253.51
  Q 216.20 253.61 216.09 253.80
  Q 215.95 254.04 215.53 254.20
  L 196.49 254.23
  Q 196.01 253.21 195.07 252.60
  Q 194.64 252.31 194.92 251.88
  L 195.63 250.80
  Q 195.86 250.46 195.74 250.07
  C 194.94 247.57 193.19 243.75 197.47 243.25
  Z"
/>
<path fill="#254f9e" d="
  M 219.57 243.28
  L 268.45 243.27
  L 268.08 252.46
  Q 268.05 252.97 267.74 253.38
  Q 267.19 254.09 267.78 254.20
  L 215.53 254.20
  Q 215.95 254.04 216.09 253.80
  Q 216.20 253.61 216.00 253.51
  Q 215.89 253.46 215.77 253.40
  Q 215.72 253.37 215.72 253.32
  L 215.87 245.41
  A 1.08 1.07 -10.0 0 1 216.57 244.42
  L 219.57 243.28
  Z"
/>
<path fill="#2c3b92" d="
  M 268.45 243.27
  L 291.70 243.36
  A 2.82 2.81 78.1 0 1 294.28 245.05
  Q 296.48 250.04 292.78 253.82
  Q 292.40 254.20 291.87 254.20
  L 267.78 254.20
  Q 267.19 254.09 267.74 253.38
  Q 268.05 252.97 268.08 252.46
  L 268.45 243.27
  Z"
/>
<path fill="#3a84c6" d="
  M 77.37 274.80
  Q 78.75 276.33 80.03 278.03
  C 81.71 280.27 84.15 281.79 85.90 284.14
  Q 87.29 286.01 88.79 287.26
  Q 90.99 289.10 94.49 292.49
  Q 98.57 296.46 107.45 302.21
  Q 107.50 302.25 110.98 304.92
  C 112.61 306.17 114.70 306.83 116.23 307.86
  C 123.44 312.73 129.05 314.02 135.41 317.71
  Q 133.55 318.16 131.97 316.49
  Q 131.39 315.88 131.24 316.72
  L 131.02 318.03
  A 0.63 0.62 -4.8 0 1 130.60 318.52
  Q 129.29 318.96 129.09 320.54
  Q 121.49 316.81 113.96 312.75
  Q 111.68 311.52 108.76 309.42
  Q 106.23 307.61 103.58 305.98
  Q 101.79 304.87 98.90 302.39
  C 96.78 300.57 94.57 299.71 92.68 297.53
  Q 90.46 294.98 87.40 293.42
  Q 86.88 293.15 86.59 292.64
  Q 84.51 288.98 80.82 286.95
  A 1.74 1.70 -89.2 0 1 80.11 286.20
  Q 78.47 282.82 76.68 281.58
  Q 74.40 280.00 73.74 278.77
  Q 73.70 277.28 74.95 276.25
  Q 75.31 275.95 75.76 275.86
  Q 76.91 275.62 77.37 274.80
  Z"
/>
<path fill="#3577bc" d="
  M 219.35 291.49
  Q 218.11 292.19 217.16 290.60
  A 1.03 0.99 80.1 0 0 216.49 290.11
  Q 215.46 289.88 214.93 289.17
  Q 214.40 288.46 213.88 289.17
  Q 213.20 290.09 213.94 291.11
  Q 214.15 291.41 213.79 291.38
  Q 212.84 291.30 212.37 292.06
  Q 212.00 292.64 212.68 292.74
  Q 214.17 292.95 214.21 294.48
  Q 206.72 290.26 204.51 289.71
  C 195.66 287.47 182.35 286.87 174.27 291.73
  C 172.55 292.76 170.51 293.37 169.01 294.28
  C 162.24 298.38 156.78 304.02 153.37 311.19
  C 152.61 312.81 151.36 314.07 150.79 315.70
  Q 149.18 320.28 148.76 325.51
  Q 148.62 327.21 146.94 326.90
  Q 142.97 326.15 138.62 324.48
  Q 138.60 324.47 133.98 322.25
  Q 131.72 321.16 129.09 320.54
  Q 129.29 318.96 130.60 318.52
  A 0.63 0.62 -4.8 0 0 131.02 318.03
  L 131.24 316.72
  Q 131.39 315.88 131.97 316.49
  Q 133.55 318.16 135.41 317.71
  L 143.42 320.39
  Q 143.94 320.56 144.13 320.06
  C 144.64 318.69 144.84 315.33 145.96 314.36
  A 2.01 1.97 80.8 0 0 146.51 313.58
  Q 154.75 292.66 176.23 285.52
  Q 176.48 285.44 176.79 285.14
  Q 177.10 284.82 177.53 284.70
  Q 191.49 280.78 205.48 284.67
  Q 205.71 284.74 206.18 285.27
  Q 206.26 285.36 206.33 285.47
  A 0.46 0.44 -9.3 0 0 206.62 285.67
  Q 213.69 287.42 219.35 291.49
  Z"
/>
<path fill="#254f9e" d="
  M 295.22 286.41
  Q 295.29 286.99 295.66 287.19
  Q 295.91 287.32 295.81 287.58
  L 295.29 289.03
  Q 295.09 289.59 295.67 289.73
  Q 296.82 290.02 297.35 291.26
  Q 278.22 309.70 254.00 320.33
  Q 253.01 319.65 252.53 319.99
  Q 252.34 320.13 252.14 320.00
  Q 251.06 319.26 251.65 318.25
  Q 251.85 317.90 251.57 317.61
  Q 250.89 316.93 251.04 316.03
  C 267.91 308.89 282.02 298.85 295.22 286.41
  Z"
/>
<path fill="#2960aa" d="
  M 219.35 291.49
  C 220.40 293.42 223.93 294.40 225.66 296.68
  Q 227.11 298.59 228.66 300.09
  Q 231.46 302.81 232.82 306.63
  A 1.47 1.45 -84.2 0 0 233.39 307.34
  C 234.08 307.78 234.53 307.99 234.87 308.77
  Q 237.10 313.89 238.51 319.76
  A 0.84 0.84 0.0 0 0 239.51 320.38
  Q 245.41 319.06 251.04 316.03
  Q 250.89 316.93 251.57 317.61
  Q 251.85 317.90 251.65 318.25
  Q 251.06 319.26 252.14 320.00
  Q 252.34 320.13 252.53 319.99
  Q 253.01 319.65 254.00 320.33
  Q 245.21 324.62 235.81 327.10
  Q 235.02 327.31 234.95 326.50
  L 234.59 322.39
  Q 234.57 322.14 234.26 321.72
  Q 234.13 321.55 233.90 321.66
  A 0.31 0.30 -18.8 0 1 233.46 321.45
  Q 232.34 315.37 229.53 309.93
  Q 228.95 308.80 226.89 306.51
  C 224.90 304.29 224.48 301.91 221.49 299.95
  C 218.77 298.18 217.72 295.72 214.21 294.48
  Q 214.17 292.95 212.68 292.74
  Q 212.00 292.64 212.37 292.06
  Q 212.84 291.30 213.79 291.38
  Q 214.15 291.41 213.94 291.11
  Q 213.20 290.09 213.88 289.17
  Q 214.40 288.46 214.93 289.17
  Q 215.46 289.88 216.49 290.11
  A 1.03 0.99 80.1 0 1 217.16 290.60
  Q 218.11 292.19 219.35 291.49
  Z"
/>
</svg>
