<?xml version="1.0" encoding="UTF-8" standalone="no"?>
<!DOCTYPE svg PUBLIC "-//W3C//DTD SVG 1.1//EN" "http://www.w3.org/Graphics/SVG/1.1/DTD/svg11.dtd">
<svg xmlns="http://www.w3.org/2000/svg" version="1.1" viewBox="0.00 0.00 150.00 150.00">
<g stroke-width="2.00" fill="none" stroke-linecap="butt">
<path stroke="#a8a6a5" vector-effect="non-scaling-stroke" d="
  M 39.86 39.31
  Q 40.60 39.86 41.16 40.57
  Q 41.70 41.26 40.90 40.91
  L 38.75 39.99
  Q 37.17 39.31 38.05 40.79
  Q 40.64 45.19 45.71 48.98"
/>
<path stroke="#e5a986" vector-effect="non-scaling-stroke" d="
  M 45.71 48.98
  Q 44.93 50.15 42.02 48.18
  Q 41.26 47.67 41.60 48.52
  C 43.32 52.90 48.10 57.42 52.67 62.17"
/>
<path stroke="#fbbe83" vector-effect="non-scaling-stroke" d="
  M 52.67 62.17
  Q 50.76 62.01 49.48 61.06
  A 0.36 0.36 0.0 0 0 48.93 61.50
  C 52.82 70.37 58.96 75.46 66.24 81.64
  Q 66.59 81.94 66.58 81.48
  Q 66.23 66.78 57.48 54.17"
/>
<path stroke="#e5a986" vector-effect="non-scaling-stroke" d="
  M 57.48 54.17
  L 50.85 44.81"
/>
<path stroke="#a8a6a5" vector-effect="non-scaling-stroke" d="
  M 50.85 44.81
  L 47.29 40.20
  Q 46.58 39.27 47.60 39.85
  Q 48.31 40.26 49.45 41.37"
/>
<path stroke="#e5a986" vector-effect="non-scaling-stroke" d="
  M 49.45 41.37
  L 56.00 48.33"
/>
<path stroke="#fbbe83" vector-effect="non-scaling-stroke" d="
  M 56.00 48.33
  Q 63.84 58.41 66.85 71.39"
/>
<path stroke="#fada94" vector-effect="non-scaling-stroke" d="
  M 66.85 71.39
  C 67.79 78.56 68.02 86.64 70.35 93.00
  Q 72.50 98.89 76.00 104.17
  A 0.82 0.82 0.0 0 0 77.41 104.09
  C 80.38 98.29 83.74 92.84 84.52 86.25
  Q 85.39 78.94 86.16 72.25"
/>
<path stroke="#fbbe83" vector-effect="non-scaling-stroke" d="
  M 86.16 72.25
  Q 89.05 58.65 96.88 48.71"
/>
<path stroke="#e5a986" vector-effect="non-scaling-stroke" d="
  M 96.88 48.71
  L 103.03 41.72"
/>
<path stroke="#a8a6a5" vector-effect="non-scaling-stroke" d="
  M 103.03 41.72
  Q 104.30 40.51 105.18 40.09
  Q 106.08 39.67 105.49 40.47
  L 102.12 45.03"
/>
<path stroke="#e5a986" vector-effect="non-scaling-stroke" d="
  M 102.12 45.03
  L 95.60 54.38"
/>
<path stroke="#fbbe83" vector-effect="non-scaling-stroke" d="
  M 95.60 54.38
  C 88.91 63.50 87.86 71.32 86.18 81.97
  Q 86.09 82.56 86.53 82.15
  C 93.42 75.60 100.09 71.34 103.98 61.72
  Q 104.32 60.88 103.47 61.20
  L 101.59 61.91
  Q 101.23 62.04 100.99 61.73
  Q 100.89 61.60 100.80 61.45"
/>
<path stroke="#e5a986" vector-effect="non-scaling-stroke" d="
  M 100.80 61.45
  Q 107.21 55.78 111.67 48.76
  A 0.38 0.38 0.0 0 0 111.21 48.21
  L 108.05 49.48
  Q 107.66 49.63 107.50 49.24
  Q 107.37 48.91 107.78 48.65"
/>
<path stroke="#a8a6a5" vector-effect="non-scaling-stroke" d="
  M 107.78 48.65
  Q 112.47 45.19 115.47 40.25
  A 0.41 0.41 0.0 0 0 114.93 39.68
  L 112.48 40.96
  A 0.25 0.25 0.0 0 1 112.17 40.57
  L 113.28 39.27"
/>
<path stroke="#cccccc" vector-effect="non-scaling-stroke" d="
  M 113.28 39.27
  C 118.35 34.97 121.48 27.29 117.56 21.15
  Q 117.26 20.67 117.04 21.19
  Q 115.24 25.53 112.40 28.63"
/>
<path stroke="#a8a6a5" vector-effect="non-scaling-stroke" d="
  M 112.40 28.63
  L 104.43 33.36"
/>
<path stroke="#e5a986" vector-effect="non-scaling-stroke" d="
  M 104.43 33.36
  C 100.71 34.85 94.89 37.22 93.24 40.22"
/>
<path stroke="#fbbe83" vector-effect="non-scaling-stroke" d="
  M 93.24 40.22
  Q 90.22 43.98 89.65 48.79
  A 0.34 0.33 20.8 0 1 89.13 49.02
  L 88.52 48.62
  Q 87.98 48.26 87.70 48.84
  Q 84.23 56.12 83.65 64.16
  A 0.51 0.51 0.0 0 1 82.75 64.44
  L 81.65 63.04
  Q 81.32 62.62 81.08 63.11
  Q 80.30 64.77 80.56 66.77"
/>
<path stroke="#fada94" vector-effect="non-scaling-stroke" d="
  M 80.56 66.77
  Q 80.16 70.46 81.58 74.14
  A 0.43 0.43 0.0 0 1 80.90 74.63
  Q 76.53 70.97 72.30 74.74
  A 0.44 0.44 0.0 0 1 71.60 74.25
  Q 73.33 69.74 72.47 65.03"
/>
<path stroke="#fbbe83" vector-effect="non-scaling-stroke" d="
  M 72.47 65.03
  Q 72.39 63.59 71.93 62.94
  Q 71.57 62.43 71.28 62.98
  L 70.49 64.45
  A 0.49 0.48 56.6 0 1 69.58 64.26
  Q 68.80 56.08 65.47 48.56
  A 0.55 0.54 70.6 0 0 64.83 48.25
  Q 64.24 48.39 64.24 48.84
  Q 64.25 49.29 63.80 49.25
  Q 63.59 49.24 63.45 49.10
  Q 63.33 48.99 63.31 48.76
  Q 62.97 43.52 59.27 39.33"
/>
<path stroke="#e5a986" vector-effect="non-scaling-stroke" d="
  M 59.27 39.33
  Q 55.56 35.92 50.27 34.15"
/>
<path stroke="#a8a6a5" vector-effect="non-scaling-stroke" d="
  M 50.27 34.15
  L 40.62 28.61"
/>
<path stroke="#cccccc" vector-effect="non-scaling-stroke" d="
  M 40.62 28.61
  Q 37.84 25.52 36.11 21.19
  Q 35.91 20.68 35.58 21.12
  C 31.34 26.89 34.91 35.11 39.86 39.31"
/>
<path stroke="#757372" vector-effect="non-scaling-stroke" d="
  M 40.62 28.61
  C 40.77 31.54 42.26 37.44 39.86 39.31"
/>
<path stroke="#8e502c" vector-effect="non-scaling-stroke" d="
  M 50.27 34.15
  Q 49.23 34.18 48.87 35.04
  C 48.34 36.29 49.66 39.48 49.45 41.37"
/>
<path stroke="#8e502c" vector-effect="non-scaling-stroke" d="
  M 50.85 44.81
  Q 49.03 47.23 45.71 48.98"
/>
<path stroke="#e1680a" vector-effect="non-scaling-stroke" d="
  M 59.27 39.33
  L 56.00 48.33"
/>
<path stroke="#e1680a" vector-effect="non-scaling-stroke" d="
  M 57.48 54.17
  Q 56.47 57.95 57.65 62.10
  A 1.46 1.45 -12.4 0 1 56.47 63.94
  Q 53.52 64.41 52.67 62.17"
/>
<path stroke="#f69917" vector-effect="non-scaling-stroke" d="
  M 72.47 65.03
  L 66.85 71.39"
/>
<path stroke="#f69917" vector-effect="non-scaling-stroke" d="
  M 86.16 72.25
  L 82.77 67.18
  A 0.94 0.93 73.0 0 0 81.99 66.76
  L 80.56 66.77"
/>
<path stroke="#e1680a" vector-effect="non-scaling-stroke" d="
  M 96.88 48.71
  L 94.88 40.77
  Q 94.75 40.28 94.24 40.26
  L 93.24 40.22"
/>
<path stroke="#8e502c" vector-effect="non-scaling-stroke" d="
  M 107.78 48.65
  Q 104.54 47.80 102.12 45.03"
/>
<path stroke="#8e502c" vector-effect="non-scaling-stroke" d="
  M 103.03 41.72
  L 104.43 33.36"
/>
<path stroke="#757372" vector-effect="non-scaling-stroke" d="
  M 113.28 39.27
  Q 113.28 38.45 112.29 38.16
  Q 111.83 38.03 111.86 37.55
  L 112.40 28.63"
/>
<path stroke="#e1680a" vector-effect="non-scaling-stroke" d="
  M 100.80 61.45
  Q 100.25 64.73 97.05 64.05
  A 1.87 1.87 0.0 0 1 95.61 61.85
  Q 96.47 57.70 95.60 54.38"
/>
<path stroke="#959595" vector-effect="non-scaling-stroke" d="
  M 95.36 117.38
  A 1.94 1.44 26.6 0 1 98.72 116.78
  C 99.62 118.48 101.91 123.65 104.31 122.66
  Q 104.76 122.48 104.50 122.07
  L 101.19 116.82
  A 0.52 0.51 69.8 0 1 101.55 116.03
  C 104.61 115.60 105.78 112.14 103.32 110.42
  C 101.60 109.22 96.59 109.75 94.40 109.73
  Q 93.67 109.72 93.98 110.38
  L 94.46 111.42
  Q 94.71 111.95 95.29 111.94
  L 101.58 111.79
  A 0.94 0.94 0.0 0 1 102.48 113.07
  Q 102.08 114.08 100.99 114.04
  Q 97.54 113.90 93.98 114.05
  Q 93.50 114.07 93.50 114.55
  L 93.50 119.87
  Q 93.50 120.60 94.23 120.72
  Q 95.03 120.86 95.63 119.62
  Q 95.83 119.21 95.78 118.77
  Q 95.71 118.12 95.36 117.38"
/>
<path stroke="#959595" vector-effect="non-scaling-stroke" d="
  M 47.87 112.46
  L 47.71 114.01
  A 0.46 0.45 -30.7 0 0 48.58 114.23
  L 50.18 110.47
  Q 50.42 109.92 49.82 109.88
  C 42.75 109.38 37.87 108.37 39.11 117.12
  C 39.84 122.30 49.49 121.40 49.78 117.82
  Q 49.82 117.28 49.28 117.25
  Q 48.36 117.20 47.71 117.91
  Q 47.35 118.31 46.80 118.31
  L 41.92 118.33
  Q 41.25 118.33 41.25 117.67
  L 41.25 112.49
  Q 41.25 111.79 41.95 111.78
  L 47.22 111.74
  Q 47.94 111.74 47.87 112.46"
/>
<path stroke="#959595" vector-effect="non-scaling-stroke" d="
  M 54.81 117.94
  Q 54.59 117.15 54.96 116.67
  Q 55.29 116.24 56.16 116.25
  Q 58.53 116.28 60.73 116.23
  A 1.07 1.07 0.0 0 0 60.87 114.10
  Q 58.86 113.79 56.40 114.00
  Q 55.52 114.08 55.11 113.75
  Q 54.44 113.21 54.84 112.17
  Q 55.00 111.75 55.45 111.75
  L 63.13 111.75
  Q 63.75 111.75 63.75 111.12
  L 63.75 110.50
  Q 63.75 109.75 63.00 109.75
  L 53.25 109.75
  A 0.50 0.50 0.0 0 0 52.75 110.25
  L 52.75 120.00
  Q 52.75 120.50 53.25 120.50
  L 61.74 120.50
  A 0.98 0.98 0.0 0 1 62.55 120.93
  L 63.11 121.77
  Q 63.75 122.73 63.75 121.58
  L 63.75 119.13
  Q 63.75 118.50 63.12 118.50
  L 55.55 118.50
  Q 54.97 118.50 54.81 117.94"
/>
<path stroke="#959595" vector-effect="non-scaling-stroke" d="
  M 70.97 117.95
  L 76.96 110.20
  Q 77.31 109.75 76.74 109.75
  L 66.82 109.75
  Q 65.98 109.75 66.38 110.49
  L 67.88 113.23
  Q 68.34 114.05 68.46 113.12
  L 68.51 112.78
  Q 68.59 112.14 69.23 112.07
  L 72.16 111.74
  Q 73.17 111.62 72.55 112.43
  L 66.88 119.85
  Q 66.53 120.30 67.11 120.36
  Q 72.36 120.83 75.43 120.41
  Q 76.96 120.20 76.91 118.97
  Q 76.89 118.45 76.37 118.46
  L 71.25 118.52
  Q 70.52 118.53 70.97 117.95"
/>
<path stroke="#959595" vector-effect="non-scaling-stroke" d="
  M 82.04 116.53
  A 0.29 0.29 0.0 0 1 82.33 116.25
  L 88.42 116.25
  A 0.29 0.29 0.0 0 0 88.71 115.97
  L 88.77 114.31
  A 0.29 0.29 0.0 0 0 88.48 114.01
  L 82.42 113.99
  A 0.29 0.29 0.0 0 1 82.14 113.74
  L 81.91 112.08
  A 0.29 0.29 0.0 0 1 82.19 111.75
  L 90.58 111.75
  A 0.29 0.29 0.0 0 0 90.86 111.50
  L 91.06 110.08
  A 0.29 0.29 0.0 0 0 90.78 109.75
  L 80.25 109.75
  A 0.29 0.29 0.0 0 0 79.96 110.04
  L 80.02 120.21
  A 0.29 0.29 0.0 0 0 80.31 120.50
  L 89.43 120.50
  A 0.29 0.29 0.0 0 1 89.69 120.66
  L 90.46 122.14
  A 0.29 0.29 0.0 0 0 91.01 122.01
  L 90.98 118.79
  A 0.29 0.29 0.0 0 0 90.69 118.50
  L 82.27 118.50
  A 0.29 0.29 0.0 0 1 81.98 118.20
  L 82.04 116.53"
/>
<path stroke="#959595" vector-effect="non-scaling-stroke" d="
  M 109.51 110.80
  A 1.16 1.16 0.0 0 0 108.35 109.64
  A 1.16 1.16 0.0 0 0 107.19 110.80
  A 1.16 1.16 0.0 0 0 108.35 111.96
  A 1.16 1.16 0.0 0 0 109.51 110.80"
/>
<path stroke="#959595" vector-effect="non-scaling-stroke" d="
  M 109.69 121.66
  L 109.16 113.86
  A 0.12 0.12 0.0 0 0 109.03 113.75
  L 108.99 113.75
  A 3.42 1.96 86.1 0 0 107.27 117.29
  L 107.35 118.51
  A 3.42 1.96 86.1 0 0 109.54 121.79
  L 109.58 121.79
  A 0.12 0.12 0.0 0 0 109.69 121.66"
/>
<path stroke="#fada94" vector-effect="non-scaling-stroke" d="
  M 75.99 73.99
  L 75.68 74.18
  Q 74.80 74.70 75.82 74.72
  L 77.13 74.76
  A 0.39 0.39 0.0 0 0 77.49 74.20
  Q 77.22 73.65 76.75 73.74
  Q 76.26 73.83 75.99 73.99"
/>
<path stroke="#fada94" vector-effect="non-scaling-stroke" d="
  M 77.52 77.25
  A 1.40 1.40 0.0 0 0 75.57 77.32
  C 69.46 83.64 72.95 93.96 76.10 100.12
  Q 76.40 100.72 76.76 100.15
  C 80.42 94.19 83.59 82.76 77.52 77.25"
/>
</g>
<path fill="#ffffff" d="
  M 0.00 0.00
  L 150.00 0.00
  L 150.00 150.00
  L 0.00 150.00
  L 0.00 0.00
  Z
  M 39.86 39.31
  Q 40.60 39.86 41.16 40.57
  Q 41.70 41.26 40.90 40.91
  L 38.75 39.99
  Q 37.17 39.31 38.05 40.79
  Q 40.64 45.19 45.71 48.98
  Q 44.93 50.15 42.02 48.18
  Q 41.26 47.67 41.60 48.52
  C 43.32 52.90 48.10 57.42 52.67 62.17
  Q 50.76 62.01 49.48 61.06
  A 0.36 0.36 0.0 0 0 48.93 61.50
  C 52.82 70.37 58.96 75.46 66.24 81.64
  Q 66.59 81.94 66.58 81.48
  Q 66.23 66.78 57.48 54.17
  L 50.85 44.81
  L 47.29 40.20
  Q 46.58 39.27 47.60 39.85
  Q 48.31 40.26 49.45 41.37
  L 56.00 48.33
  Q 63.84 58.41 66.85 71.39
  C 67.79 78.56 68.02 86.64 70.35 93.00
  Q 72.50 98.89 76.00 104.17
  A 0.82 0.82 0.0 0 0 77.41 104.09
  C 80.38 98.29 83.74 92.84 84.52 86.25
  Q 85.39 78.94 86.16 72.25
  Q 89.05 58.65 96.88 48.71
  L 103.03 41.72
  Q 104.30 40.51 105.18 40.09
  Q 106.08 39.67 105.49 40.47
  L 102.12 45.03
  L 95.60 54.38
  C 88.91 63.50 87.86 71.32 86.18 81.97
  Q 86.09 82.56 86.53 82.15
  C 93.42 75.60 100.09 71.34 103.98 61.72
  Q 104.32 60.88 103.47 61.20
  L 101.59 61.91
  Q 101.23 62.04 100.99 61.73
  Q 100.89 61.60 100.80 61.45
  Q 107.21 55.78 111.67 48.76
  A 0.38 0.38 0.0 0 0 111.21 48.21
  L 108.05 49.48
  Q 107.66 49.63 107.50 49.24
  Q 107.37 48.91 107.78 48.65
  Q 112.47 45.19 115.47 40.25
  A 0.41 0.41 0.0 0 0 114.93 39.68
  L 112.48 40.96
  A 0.25 0.25 0.0 0 1 112.17 40.57
  L 113.28 39.27
  C 118.35 34.97 121.48 27.29 117.56 21.15
  Q 117.26 20.67 117.04 21.19
  Q 115.24 25.53 112.40 28.63
  L 104.43 33.36
  C 100.71 34.85 94.89 37.22 93.24 40.22
  Q 90.22 43.98 89.65 48.79
  A 0.34 0.33 20.8 0 1 89.13 49.02
  L 88.52 48.62
  Q 87.98 48.26 87.70 48.84
  Q 84.23 56.12 83.65 64.16
  A 0.51 0.51 0.0 0 1 82.75 64.44
  L 81.65 63.04
  Q 81.32 62.62 81.08 63.11
  Q 80.30 64.77 80.56 66.77
  Q 80.16 70.46 81.58 74.14
  A 0.43 0.43 0.0 0 1 80.90 74.63
  Q 76.53 70.97 72.30 74.74
  A 0.44 0.44 0.0 0 1 71.60 74.25
  Q 73.33 69.74 72.47 65.03
  Q 72.39 63.59 71.93 62.94
  Q 71.57 62.43 71.28 62.98
  L 70.49 64.45
  A 0.49 0.48 56.6 0 1 69.58 64.26
  Q 68.80 56.08 65.47 48.56
  A 0.55 0.54 70.6 0 0 64.83 48.25
  Q 64.24 48.39 64.24 48.84
  Q 64.25 49.29 63.80 49.25
  Q 63.59 49.24 63.45 49.10
  Q 63.33 48.99 63.31 48.76
  Q 62.97 43.52 59.27 39.33
  Q 55.56 35.92 50.27 34.15
  L 40.62 28.61
  Q 37.84 25.52 36.11 21.19
  Q 35.91 20.68 35.58 21.12
  C 31.34 26.89 34.91 35.11 39.86 39.31
  Z
  M 95.36 117.38
  A 1.94 1.44 26.6 0 1 98.72 116.78
  C 99.62 118.48 101.91 123.65 104.31 122.66
  Q 104.76 122.48 104.50 122.07
  L 101.19 116.82
  A 0.52 0.51 69.8 0 1 101.55 116.03
  C 104.61 115.60 105.78 112.14 103.32 110.42
  C 101.60 109.22 96.59 109.75 94.40 109.73
  Q 93.67 109.72 93.98 110.38
  L 94.46 111.42
  Q 94.71 111.95 95.29 111.94
  L 101.58 111.79
  A 0.94 0.94 0.0 0 1 102.48 113.07
  Q 102.08 114.08 100.99 114.04
  Q 97.54 113.90 93.98 114.05
  Q 93.50 114.07 93.50 114.55
  L 93.50 119.87
  Q 93.50 120.60 94.23 120.72
  Q 95.03 120.86 95.63 119.62
  Q 95.83 119.21 95.78 118.77
  Q 95.71 118.12 95.36 117.38
  Z
  M 47.87 112.46
  L 47.71 114.01
  A 0.46 0.45 -30.7 0 0 48.58 114.23
  L 50.18 110.47
  Q 50.42 109.92 49.82 109.88
  C 42.75 109.38 37.87 108.37 39.11 117.12
  C 39.84 122.30 49.49 121.40 49.78 117.82
  Q 49.82 117.28 49.28 117.25
  Q 48.36 117.20 47.71 117.91
  Q 47.35 118.31 46.80 118.31
  L 41.92 118.33
  Q 41.25 118.33 41.25 117.67
  L 41.25 112.49
  Q 41.25 111.79 41.95 111.78
  L 47.22 111.74
  Q 47.94 111.74 47.87 112.46
  Z
  M 54.81 117.94
  Q 54.59 117.15 54.96 116.67
  Q 55.29 116.24 56.16 116.25
  Q 58.53 116.28 60.73 116.23
  A 1.07 1.07 0.0 0 0 60.87 114.10
  Q 58.86 113.79 56.40 114.00
  Q 55.52 114.08 55.11 113.75
  Q 54.44 113.21 54.84 112.17
  Q 55.00 111.75 55.45 111.75
  L 63.13 111.75
  Q 63.75 111.75 63.75 111.12
  L 63.75 110.50
  Q 63.75 109.75 63.00 109.75
  L 53.25 109.75
  A 0.50 0.50 0.0 0 0 52.75 110.25
  L 52.75 120.00
  Q 52.75 120.50 53.25 120.50
  L 61.74 120.50
  A 0.98 0.98 0.0 0 1 62.55 120.93
  L 63.11 121.77
  Q 63.75 122.73 63.75 121.58
  L 63.75 119.13
  Q 63.75 118.50 63.12 118.50
  L 55.55 118.50
  Q 54.97 118.50 54.81 117.94
  Z
  M 70.97 117.95
  L 76.96 110.20
  Q 77.31 109.75 76.74 109.75
  L 66.82 109.75
  Q 65.98 109.75 66.38 110.49
  L 67.88 113.23
  Q 68.34 114.05 68.46 113.12
  L 68.51 112.78
  Q 68.59 112.14 69.23 112.07
  L 72.16 111.74
  Q 73.17 111.62 72.55 112.43
  L 66.88 119.85
  Q 66.53 120.30 67.11 120.36
  Q 72.36 120.83 75.43 120.41
  Q 76.96 120.20 76.91 118.97
  Q 76.89 118.45 76.37 118.46
  L 71.25 118.52
  Q 70.52 118.53 70.97 117.95
  Z
  M 82.04 116.53
  A 0.29 0.29 0.0 0 1 82.33 116.25
  L 88.42 116.25
  A 0.29 0.29 0.0 0 0 88.71 115.97
  L 88.77 114.31
  A 0.29 0.29 0.0 0 0 88.48 114.01
  L 82.42 113.99
  A 0.29 0.29 0.0 0 1 82.14 113.74
  L 81.91 112.08
  A 0.29 0.29 0.0 0 1 82.19 111.75
  L 90.58 111.75
  A 0.29 0.29 0.0 0 0 90.86 111.50
  L 91.06 110.08
  A 0.29 0.29 0.0 0 0 90.78 109.75
  L 80.25 109.75
  A 0.29 0.29 0.0 0 0 79.96 110.04
  L 80.02 120.21
  A 0.29 0.29 0.0 0 0 80.31 120.50
  L 89.43 120.50
  A 0.29 0.29 0.0 0 1 89.69 120.66
  L 90.46 122.14
  A 0.29 0.29 0.0 0 0 91.01 122.01
  L 90.98 118.79
  A 0.29 0.29 0.0 0 0 90.69 118.50
  L 82.27 118.50
  A 0.29 0.29 0.0 0 1 81.98 118.20
  L 82.04 116.53
  Z
  M 109.51 110.80
  A 1.16 1.16 0.0 0 0 108.35 109.64
  A 1.16 1.16 0.0 0 0 107.19 110.80
  A 1.16 1.16 0.0 0 0 108.35 111.96
  A 1.16 1.16 0.0 0 0 109.51 110.80
  Z
  M 109.69 121.66
  L 109.16 113.86
  A 0.12 0.12 0.0 0 0 109.03 113.75
  L 108.99 113.75
  A 3.42 1.96 86.1 0 0 107.27 117.29
  L 107.35 118.51
  A 3.42 1.96 86.1 0 0 109.54 121.79
  L 109.58 121.79
  A 0.12 0.12 0.0 0 0 109.69 121.66
  Z"
/>
<path fill="#999999" d="
  M 40.62 28.61
  C 40.77 31.54 42.26 37.44 39.86 39.31
  C 34.91 35.11 31.34 26.89 35.58 21.12
  Q 35.91 20.68 36.11 21.19
  Q 37.84 25.52 40.62 28.61
  Z"
/>
<path fill="#999999" d="
  M 113.28 39.27
  Q 113.28 38.45 112.29 38.16
  Q 111.83 38.03 111.86 37.55
  L 112.40 28.63
  Q 115.24 25.53 117.04 21.19
  Q 117.26 20.67 117.56 21.15
  C 121.48 27.29 118.35 34.97 113.28 39.27
  Z"
/>
<path fill="#504c4b" d="
  M 40.62 28.61
  L 50.27 34.15
  Q 49.23 34.18 48.87 35.04
  C 48.34 36.29 49.66 39.48 49.45 41.37
  Q 48.31 40.26 47.60 39.85
  Q 46.58 39.27 47.29 40.20
  L 50.85 44.81
  Q 49.03 47.23 45.71 48.98
  Q 40.64 45.19 38.05 40.79
  Q 37.17 39.31 38.75 39.99
  L 40.90 40.91
  Q 41.70 41.26 41.16 40.57
  Q 40.60 39.86 39.86 39.31
  C 42.26 37.44 40.77 31.54 40.62 28.61
  Z"
/>
<path fill="#504c4b" d="
  M 112.40 28.63
  L 111.86 37.55
  Q 111.83 38.03 112.29 38.16
  Q 113.28 38.45 113.28 39.27
  L 112.17 40.57
  A 0.25 0.25 0.0 0 0 112.48 40.96
  L 114.93 39.68
  A 0.41 0.41 0.0 0 1 115.47 40.25
  Q 112.47 45.19 107.78 48.65
  Q 104.54 47.80 102.12 45.03
  L 105.49 40.47
  Q 106.08 39.67 105.18 40.09
  Q 104.30 40.51 103.03 41.72
  L 104.43 33.36
  L 112.40 28.63
  Z"
/>
<path fill="#cb530d" d="
  M 104.43 33.36
  L 103.03 41.72
  L 96.88 48.71
  L 94.88 40.77
  Q 94.75 40.28 94.24 40.26
  L 93.24 40.22
  C 94.89 37.22 100.71 34.85 104.43 33.36
  Z"
/>
<path fill="#cb530d" d="
  M 50.27 34.15
  Q 55.56 35.92 59.27 39.33
  L 56.00 48.33
  L 49.45 41.37
  C 49.66 39.48 48.34 36.29 48.87 35.04
  Q 49.23 34.18 50.27 34.15
  Z"
/>
<path fill="#f77d06" d="
  M 59.27 39.33
  Q 62.97 43.52 63.31 48.76
  Q 63.33 48.99 63.45 49.10
  Q 63.59 49.24 63.80 49.25
  Q 64.25 49.29 64.24 48.84
  Q 64.24 48.39 64.83 48.25
  A 0.55 0.54 70.6 0 1 65.47 48.56
  Q 68.80 56.08 69.58 64.26
  A 0.49 0.48 56.6 0 0 70.49 64.45
  L 71.28 62.98
  Q 71.57 62.43 71.93 62.94
  Q 72.39 63.59 72.47 65.03
  L 66.85 71.39
  Q 63.84 58.41 56.00 48.33
  L 59.27 39.33
  Z"
/>
<path fill="#f77d06" d="
  M 93.24 40.22
  L 94.24 40.26
  Q 94.75 40.28 94.88 40.77
  L 96.88 48.71
  Q 89.05 58.65 86.16 72.25
  L 82.77 67.18
  A 0.94 0.93 73.0 0 0 81.99 66.76
  L 80.56 66.77
  Q 80.30 64.77 81.08 63.11
  Q 81.32 62.62 81.65 63.04
  L 82.75 64.44
  A 0.51 0.51 0.0 0 0 83.65 64.16
  Q 84.23 56.12 87.70 48.84
  Q 87.98 48.26 88.52 48.62
  L 89.13 49.02
  A 0.34 0.33 20.8 0 0 89.65 48.79
  Q 90.22 43.98 93.24 40.22
  Z"
/>
<path fill="#cb530d" d="
  M 50.85 44.81
  L 57.48 54.17
  Q 56.47 57.95 57.65 62.10
  A 1.46 1.45 -12.4 0 1 56.47 63.94
  Q 53.52 64.41 52.67 62.17
  C 48.10 57.42 43.32 52.90 41.60 48.52
  Q 41.26 47.67 42.02 48.18
  Q 44.93 50.15 45.71 48.98
  Q 49.03 47.23 50.85 44.81
  Z"
/>
<path fill="#cb530d" d="
  M 102.12 45.03
  Q 104.54 47.80 107.78 48.65
  Q 107.37 48.91 107.50 49.24
  Q 107.66 49.63 108.05 49.48
  L 111.21 48.21
  A 0.38 0.38 0.0 0 1 111.67 48.76
  Q 107.21 55.78 100.80 61.45
  Q 100.25 64.73 97.05 64.05
  A 1.87 1.87 0.0 0 1 95.61 61.85
  Q 96.47 57.70 95.60 54.38
  L 102.12 45.03
  Z"
/>
<path fill="#f77d06" d="
  M 57.48 54.17
  Q 66.23 66.78 66.58 81.48
  Q 66.59 81.94 66.24 81.64
  C 58.96 75.46 52.82 70.37 48.93 61.50
  A 0.36 0.36 0.0 0 1 49.48 61.06
  Q 50.76 62.01 52.67 62.17
  Q 53.52 64.41 56.47 63.94
  A 1.46 1.45 -12.4 0 0 57.65 62.10
  Q 56.47 57.95 57.48 54.17
  Z"
/>
<path fill="#f77d06" d="
  M 95.60 54.38
  Q 96.47 57.70 95.61 61.85
  A 1.87 1.87 0.0 0 0 97.05 64.05
  Q 100.25 64.73 100.80 61.45
  Q 100.89 61.60 100.99 61.73
  Q 101.23 62.04 101.59 61.91
  L 103.47 61.20
  Q 104.32 60.88 103.98 61.72
  C 100.09 71.34 93.42 75.60 86.53 82.15
  Q 86.09 82.56 86.18 81.97
  C 87.86 71.32 88.91 63.50 95.60 54.38
  Z"
/>
<path fill="#f5b428" d="
  M 72.47 65.03
  Q 73.33 69.74 71.60 74.25
  A 0.44 0.44 0.0 0 0 72.30 74.74
  Q 76.53 70.97 80.90 74.63
  A 0.43 0.43 0.0 0 0 81.58 74.14
  Q 80.16 70.46 80.56 66.77
  L 81.99 66.76
  A 0.94 0.93 73.0 0 1 82.77 67.18
  L 86.16 72.25
  Q 85.39 78.94 84.52 86.25
  C 83.74 92.84 80.38 98.29 77.41 104.09
  A 0.82 0.82 0.0 0 1 76.00 104.17
  Q 72.50 98.89 70.35 93.00
  C 68.02 86.64 67.79 78.56 66.85 71.39
  L 72.47 65.03
  Z
  M 75.99 73.99
  L 75.68 74.18
  Q 74.80 74.70 75.82 74.72
  L 77.13 74.76
  A 0.39 0.39 0.0 0 0 77.49 74.20
  Q 77.22 73.65 76.75 73.74
  Q 76.26 73.83 75.99 73.99
  Z
  M 77.52 77.25
  A 1.40 1.40 0.0 0 0 75.57 77.32
  C 69.46 83.64 72.95 93.96 76.10 100.12
  Q 76.40 100.72 76.76 100.15
  C 80.42 94.19 83.59 82.76 77.52 77.25
  Z"
/>
<path fill="#ffffff" d="
  M 76.75 73.74
  Q 77.22 73.65 77.49 74.20
  A 0.39 0.39 0.0 0 1 77.13 74.76
  L 75.82 74.72
  Q 74.80 74.70 75.68 74.18
  L 75.99 73.99
  Q 76.26 73.83 76.75 73.74
  Z"
/>
<path fill="#ffffff" d="
  M 77.52 77.25
  C 83.59 82.76 80.42 94.19 76.76 100.15
  Q 76.40 100.72 76.10 100.12
  C 72.95 93.96 69.46 83.64 75.57 77.32
  A 1.40 1.40 0.0 0 1 77.52 77.25
  Z"
/>
<path fill="#2b2a2a" d="
  M 95.36 117.38
  Q 95.71 118.12 95.78 118.77
  Q 95.83 119.21 95.63 119.62
  Q 95.03 120.86 94.23 120.72
  Q 93.50 120.60 93.50 119.87
  L 93.50 114.55
  Q 93.50 114.07 93.98 114.05
  Q 97.54 113.90 100.99 114.04
  Q 102.08 114.08 102.48 113.07
  A 0.94 0.94 0.0 0 0 101.58 111.79
  L 95.29 111.94
  Q 94.71 111.95 94.46 111.42
  L 93.98 110.38
  Q 93.67 109.72 94.40 109.73
  C 96.59 109.75 101.60 109.22 103.32 110.42
  C 105.78 112.14 104.61 115.60 101.55 116.03
  A 0.52 0.51 69.8 0 0 101.19 116.82
  L 104.50 122.07
  Q 104.76 122.48 104.31 122.66
  C 101.91 123.65 99.62 118.48 98.72 116.78
  A 1.94 1.44 26.6 0 0 95.36 117.38
  Z"
/>
<path fill="#2b2a2a" d="
  M 47.22 111.74
  L 41.95 111.78
  Q 41.25 111.79 41.25 112.49
  L 41.25 117.67
  Q 41.25 118.33 41.92 118.33
  L 46.80 118.31
  Q 47.35 118.31 47.71 117.91
  Q 48.36 117.20 49.28 117.25
  Q 49.82 117.28 49.78 117.82
  C 49.49 121.40 39.84 122.30 39.11 117.12
  C 37.87 108.37 42.75 109.38 49.82 109.88
  Q 50.42 109.92 50.18 110.47
  L 48.58 114.23
  A 0.46 0.45 -30.7 0 1 47.71 114.01
  L 47.87 112.46
  Q 47.94 111.74 47.22 111.74
  Z"
/>
<path fill="#2b2a2a" d="
  M 55.55 118.50
  L 63.12 118.50
  Q 63.75 118.50 63.75 119.13
  L 63.75 121.58
  Q 63.75 122.73 63.11 121.77
  L 62.55 120.93
  A 0.98 0.98 0.0 0 0 61.74 120.50
  L 53.25 120.50
  Q 52.75 120.50 52.75 120.00
  L 52.75 110.25
  A 0.50 0.50 0.0 0 1 53.25 109.75
  L 63.00 109.75
  Q 63.75 109.75 63.75 110.50
  L 63.75 111.12
  Q 63.75 111.75 63.13 111.75
  L 55.45 111.75
  Q 55.00 111.75 54.84 112.17
  Q 54.44 113.21 55.11 113.75
  Q 55.52 114.08 56.40 114.00
  Q 58.86 113.79 60.87 114.10
  A 1.07 1.07 0.0 0 1 60.73 116.23
  Q 58.53 116.28 56.16 116.25
  Q 55.29 116.24 54.96 116.67
  Q 54.59 117.15 54.81 117.94
  Q 54.97 118.50 55.55 118.50
  Z"
/>
<path fill="#2b2a2a" d="
  M 71.25 118.52
  L 76.37 118.46
  Q 76.89 118.45 76.91 118.97
  Q 76.96 120.20 75.43 120.41
  Q 72.36 120.83 67.11 120.36
  Q 66.53 120.30 66.88 119.85
  L 72.55 112.43
  Q 73.17 111.62 72.16 111.74
  L 69.23 112.07
  Q 68.59 112.14 68.51 112.78
  L 68.46 113.12
  Q 68.34 114.05 67.88 113.23
  L 66.38 110.49
  Q 65.98 109.75 66.82 109.75
  L 76.74 109.75
  Q 77.31 109.75 76.96 110.20
  L 70.97 117.95
  Q 70.52 118.53 71.25 118.52
  Z"
/>
<path fill="#2b2a2a" d="
  M 82.04 116.53
  L 81.98 118.20
  A 0.29 0.29 0.0 0 0 82.27 118.50
  L 90.69 118.50
  A 0.29 0.29 0.0 0 1 90.98 118.79
  L 91.01 122.01
  A 0.29 0.29 0.0 0 1 90.46 122.14
  L 89.69 120.66
  A 0.29 0.29 0.0 0 0 89.43 120.50
  L 80.31 120.50
  A 0.29 0.29 0.0 0 1 80.02 120.21
  L 79.96 110.04
  A 0.29 0.29 0.0 0 1 80.25 109.75
  L 90.78 109.75
  A 0.29 0.29 0.0 0 1 91.06 110.08
  L 90.86 111.50
  A 0.29 0.29 0.0 0 1 90.58 111.75
  L 82.19 111.75
  A 0.29 0.29 0.0 0 0 81.91 112.08
  L 82.14 113.74
  A 0.29 0.29 0.0 0 0 82.42 113.99
  L 88.48 114.01
  A 0.29 0.29 0.0 0 1 88.77 114.31
  L 88.71 115.97
  A 0.29 0.29 0.0 0 1 88.42 116.25
  L 82.33 116.25
  A 0.29 0.29 0.0 0 0 82.04 116.53
  Z"
/>
<circle fill="#2b2a2a" cx="108.35" cy="110.80" r="1.16"/>
<path fill="#2b2a2a" d="
  M 109.69 121.66
  A 0.12 0.12 0.0 0 1 109.58 121.79
  L 109.54 121.79
  A 3.42 1.96 86.1 0 1 107.35 118.51
  L 107.27 117.29
  A 3.42 1.96 86.1 0 1 108.99 113.75
  L 109.03 113.75
  A 0.12 0.12 0.0 0 1 109.16 113.86
  L 109.69 121.66
  Z"
/>
</svg>
