<?xml version="1.0" encoding="UTF-8" standalone="no"?>
<!DOCTYPE svg PUBLIC "-//W3C//DTD SVG 1.1//EN" "http://www.w3.org/Graphics/SVG/1.1/DTD/svg11.dtd">
<svg xmlns="http://www.w3.org/2000/svg" version="1.1" viewBox="0.00 0.00 934.00 334.00">
<g stroke-width="2.00" fill="none" stroke-linecap="butt">
<path stroke="#c4c5c7" vector-effect="non-scaling-stroke" d="
  M 160.84 132.26
  C 162.77 125.49 170.94 123.28 170.96 132.38
  Q 171.04 171.69 170.89 211.00
  C 170.85 223.19 181.95 233.80 193.25 235.75
  C 208.84 238.45 223.68 236.14 232.58 222.06
  Q 235.13 218.03 237.47 209.57
  Q 247.90 171.82 258.14 134.01
  C 258.92 131.14 261.28 126.08 264.71 126.18
  C 267.79 126.27 269.18 129.89 269.19 132.51
  Q 269.35 184.24 269.18 235.84
  A 0.84 0.83 -90.0 0 0 270.01 236.68
  L 295.97 236.74
  A 0.61 0.61 0.0 0 0 296.58 236.13
  Q 296.51 185.57 296.63 135.00
  Q 296.66 121.14 295.13 116.14
  C 287.58 91.58 251.64 88.45 238.03 109.10
  Q 235.40 113.08 232.75 122.41
  Q 221.23 162.89 209.74 203.38
  C 208.95 206.17 208.53 208.53 205.60 209.57
  C 200.61 211.35 198.51 206.63 198.51 202.49
  Q 198.51 163.25 198.32 124.00
  Q 198.27 114.46 192.52 107.23
  C 177.26 88.04 143.28 92.79 136.22 117.23
  Q 119.18 176.22 101.98 235.72
  A 0.79 0.78 -82.1 0 0 102.73 236.72
  L 130.75 236.72
  A 0.77 0.77 0.0 0 0 131.49 236.16
  Q 146.11 184.11 160.84 132.26"
/>
<path stroke="#c4c5c7" vector-effect="non-scaling-stroke" d="
  M 313.46 166.78
  C 297.08 193.37 307.78 236.83 344.50 236.79
  Q 383.72 236.74 423.06 236.68
  Q 423.62 236.68 423.62 236.12
  L 423.61 207.23
  A 0.50 0.50 0.0 0 0 423.11 206.74
  Q 388.35 206.72 353.45 206.72
  Q 347.29 206.72 345.11 205.95
  C 337.55 203.27 335.57 193.87 338.48 186.95
  C 340.77 181.51 344.73 180.54 350.62 180.53
  Q 386.87 180.48 422.92 180.50
  A 0.73 0.73 0.0 0 0 423.65 179.77
  L 423.58 151.55
  A 0.34 0.34 0.0 0 0 423.24 151.21
  Q 387.13 151.19 351.00 151.31
  C 346.06 151.33 340.58 149.61 338.89 144.79
  C 336.31 137.44 339.19 125.83 348.75 125.80
  Q 376.63 125.71 404.10 125.75
  A 2.37 2.37 0.0 0 0 406.13 124.60
  L 423.19 96.17
  A 0.46 0.46 0.0 0 0 422.80 95.48
  Q 390.71 95.58 358.49 95.52
  Q 341.79 95.49 338.51 96.00
  C 321.22 98.68 310.38 111.69 307.03 128.40
  Q 303.13 147.82 313.47 165.87
  Q 313.73 166.33 313.46 166.78"
/>
<path stroke="#f09393" vector-effect="non-scaling-stroke" d="
  M 710.35 150.07
  L 685.28 166.41
  A 0.55 0.55 0.0 0 0 685.28 167.33
  L 710.74 183.60"
/>
<path stroke="#c4c5c7" vector-effect="non-scaling-stroke" d="
  M 710.74 183.60
  Q 711.24 184.00 710.48 184.49
  Q 696.07 193.87 681.82 202.90
  A 1.63 1.61 -16.3 0 0 681.06 204.27
  L 681.08 235.76
  A 0.52 0.52 0.0 0 0 681.88 236.20
  L 737.43 200.60"
/>
<path stroke="#f09393" vector-effect="non-scaling-stroke" d="
  M 737.43 200.60
  L 793.40 236.33
  Q 794.01 236.72 794.01 235.99
  L 794.00 203.76
  A 1.49 1.49 0.0 0 0 793.32 202.51
  L 764.34 183.82"
/>
<path stroke="#c4c5c7" vector-effect="non-scaling-stroke" d="
  M 764.34 183.82
  Q 764.08 183.96 764.37 183.38
  Q 764.46 183.20 764.64 183.09
  Q 777.03 175.13 789.37 167.24
  A 0.39 0.39 0.0 0 0 789.37 166.58
  L 764.00 150.08"
/>
<path stroke="#f09393" vector-effect="non-scaling-stroke" d="
  M 764.00 150.08
  L 793.08 131.41
  A 2.00 1.99 -16.4 0 0 794.00 129.73
  L 794.01 96.50
  A 0.54 0.53 73.3 0 0 793.18 96.05
  L 737.34 132.49"
/>
<path stroke="#c4c5c7" vector-effect="non-scaling-stroke" d="
  M 737.34 132.49
  L 682.35 96.35
  A 5.19 5.18 -28.4 0 0 679.52 95.51
  L 645.48 95.52
  Q 644.48 95.52 643.96 96.37
  Q 627.95 122.33 611.89 148.36
  C 609.80 151.74 607.09 150.46 605.35 147.71
  Q 589.17 122.01 572.98 96.33
  A 1.72 1.70 -15.9 0 0 571.53 95.53
  L 430.41 95.54
  A 2.76 2.74 -74.7 0 0 428.04 96.90
  L 411.38 125.15
  A 0.39 0.39 0.0 0 0 411.72 125.74
  L 472.55 125.72
  Q 473.52 125.72 473.52 126.69
  L 473.56 236.00
  A 0.70 0.70 0.0 0 0 474.26 236.70
  L 503.49 236.73
  A 0.97 0.97 0.0 0 0 504.46 235.76
  L 504.46 126.26
  Q 504.46 125.72 504.99 125.72
  L 554.17 125.74
  Q 554.59 125.74 554.81 126.09
  Q 573.30 155.07 591.72 184.10
  C 592.75 185.73 592.88 187.16 592.89 189.00
  Q 593.02 212.40 592.90 235.82
  A 0.87 0.87 0.0 0 0 593.77 236.69
  L 623.24 236.72
  Q 623.86 236.72 623.86 236.11
  Q 623.90 211.87 623.98 187.64
  Q 623.99 185.68 625.70 182.96
  Q 652.72 140.16 679.66 97.54
  A 0.85 0.85 0.0 0 1 681.23 98.00
  L 681.07 129.79
  A 1.99 1.99 0.0 0 0 681.96 131.45
  L 710.35 150.07"
/>
<path stroke="#b5595a" vector-effect="non-scaling-stroke" d="
  M 737.34 132.49
  L 710.35 150.07"
/>
<path stroke="#b5595a" vector-effect="non-scaling-stroke" d="
  M 764.00 150.08
  Q 738.00 166.79 712.17 183.39
  Q 711.54 183.80 710.74 183.60"
/>
<path stroke="#b5595a" vector-effect="non-scaling-stroke" d="
  M 764.34 183.82
  Q 764.17 183.89 763.99 183.91
  Q 763.70 183.93 763.45 184.09
  L 737.43 200.60"
/>
<path stroke="#c4c5c7" vector-effect="non-scaling-stroke" d="
  M 830.31 166.12
  A 14.61 14.61 0.0 0 0 815.70 151.51
  A 14.61 14.61 0.0 0 0 801.09 166.12
  A 14.61 14.61 0.0 0 0 815.70 180.73
  A 14.61 14.61 0.0 0 0 830.31 166.12"
/>
<path stroke="#c4c5c7" vector-effect="non-scaling-stroke" d="
  M 828.09 166.13
  A 12.38 12.38 0.0 0 0 815.71 153.75
  A 12.38 12.38 0.0 0 0 803.33 166.13
  A 12.38 12.38 0.0 0 0 815.71 178.51
  A 12.38 12.38 0.0 0 0 828.09 166.13"
/>
<path stroke="#c4c5c7" vector-effect="non-scaling-stroke" d="
  M 812.77 168.93
  A 1.80 1.79 31.0 0 1 816.15 168.09
  C 817.20 170.07 818.52 174.83 821.62 173.57
  Q 822.02 173.41 821.82 173.02
  L 819.30 168.22
  Q 819.01 167.66 819.55 167.34
  Q 823.36 165.06 821.72 160.65
  C 820.40 157.07 814.47 157.78 810.81 158.15
  Q 810.25 158.21 810.25 158.77
  L 810.27 173.11
  Q 810.27 173.95 811.11 173.87
  L 812.17 173.76
  A 0.67 0.67 0.0 0 0 812.77 173.09
  L 812.77 168.93"
/>
<path stroke="#c4c5c7" vector-effect="non-scaling-stroke" d="
  M 819.6489 161.8777
  A 1.43 1.43 0.0 0 0 818.2015 160.4653
  L 814.1218 160.5151
  A 1.43 1.43 0.0 0 0 812.7094 161.9625
  L 812.7311 163.7423
  A 1.43 1.43 0.0 0 0 814.1785 165.1547
  L 818.2582 165.1049
  A 1.43 1.43 0.0 0 0 819.6706 163.6575
  L 819.6489 161.8777"
/>
</g>
<path fill="#ffffff" d="
  M 0.00 0.00
  L 934.00 0.00
  L 934.00 334.00
  L 0.00 334.00
  L 0.00 0.00
  Z
  M 160.84 132.26
  C 162.77 125.49 170.94 123.28 170.96 132.38
  Q 171.04 171.69 170.89 211.00
  C 170.85 223.19 181.95 233.80 193.25 235.75
  C 208.84 238.45 223.68 236.14 232.58 222.06
  Q 235.13 218.03 237.47 209.57
  Q 247.90 171.82 258.14 134.01
  C 258.92 131.14 261.28 126.08 264.71 126.18
  C 267.79 126.27 269.18 129.89 269.19 132.51
  Q 269.35 184.24 269.18 235.84
  A 0.84 0.83 -90.0 0 0 270.01 236.68
  L 295.97 236.74
  A 0.61 0.61 0.0 0 0 296.58 236.13
  Q 296.51 185.57 296.63 135.00
  Q 296.66 121.14 295.13 116.14
  C 287.58 91.58 251.64 88.45 238.03 109.10
  Q 235.40 113.08 232.75 122.41
  Q 221.23 162.89 209.74 203.38
  C 208.95 206.17 208.53 208.53 205.60 209.57
  C 200.61 211.35 198.51 206.63 198.51 202.49
  Q 198.51 163.25 198.32 124.00
  Q 198.27 114.46 192.52 107.23
  C 177.26 88.04 143.28 92.79 136.22 117.23
  Q 119.18 176.22 101.98 235.72
  A 0.79 0.78 -82.1 0 0 102.73 236.72
  L 130.75 236.72
  A 0.77 0.77 0.0 0 0 131.49 236.16
  Q 146.11 184.11 160.84 132.26
  Z
  M 313.46 166.78
  C 297.08 193.37 307.78 236.83 344.50 236.79
  Q 383.72 236.74 423.06 236.68
  Q 423.62 236.68 423.62 236.12
  L 423.61 207.23
  A 0.50 0.50 0.0 0 0 423.11 206.74
  Q 388.35 206.72 353.45 206.72
  Q 347.29 206.72 345.11 205.95
  C 337.55 203.27 335.57 193.87 338.48 186.95
  C 340.77 181.51 344.73 180.54 350.62 180.53
  Q 386.87 180.48 422.92 180.50
  A 0.73 0.73 0.0 0 0 423.65 179.77
  L 423.58 151.55
  A 0.34 0.34 0.0 0 0 423.24 151.21
  Q 387.13 151.19 351.00 151.31
  C 346.06 151.33 340.58 149.61 338.89 144.79
  C 336.31 137.44 339.19 125.83 348.75 125.80
  Q 376.63 125.71 404.10 125.75
  A 2.37 2.37 0.0 0 0 406.13 124.60
  L 423.19 96.17
  A 0.46 0.46 0.0 0 0 422.80 95.48
  Q 390.71 95.58 358.49 95.52
  Q 341.79 95.49 338.51 96.00
  C 321.22 98.68 310.38 111.69 307.03 128.40
  Q 303.13 147.82 313.47 165.87
  Q 313.73 166.33 313.46 166.78
  Z
  M 710.35 150.07
  L 685.28 166.41
  A 0.55 0.55 0.0 0 0 685.28 167.33
  L 710.74 183.60
  Q 711.24 184.00 710.48 184.49
  Q 696.07 193.87 681.82 202.90
  A 1.63 1.61 -16.3 0 0 681.06 204.27
  L 681.08 235.76
  A 0.52 0.52 0.0 0 0 681.88 236.20
  L 737.43 200.60
  L 793.40 236.33
  Q 794.01 236.72 794.01 235.99
  L 794.00 203.76
  A 1.49 1.49 0.0 0 0 793.32 202.51
  L 764.34 183.82
  Q 764.08 183.96 764.37 183.38
  Q 764.46 183.20 764.64 183.09
  Q 777.03 175.13 789.37 167.24
  A 0.39 0.39 0.0 0 0 789.37 166.58
  L 764.00 150.08
  L 793.08 131.41
  A 2.00 1.99 -16.4 0 0 794.00 129.73
  L 794.01 96.50
  A 0.54 0.53 73.3 0 0 793.18 96.05
  L 737.34 132.49
  L 682.35 96.35
  A 5.19 5.18 -28.4 0 0 679.52 95.51
  L 645.48 95.52
  Q 644.48 95.52 643.96 96.37
  Q 627.95 122.33 611.89 148.36
  C 609.80 151.74 607.09 150.46 605.35 147.71
  Q 589.17 122.01 572.98 96.33
  A 1.72 1.70 -15.9 0 0 571.53 95.53
  L 430.41 95.54
  A 2.76 2.74 -74.7 0 0 428.04 96.90
  L 411.38 125.15
  A 0.39 0.39 0.0 0 0 411.72 125.74
  L 472.55 125.72
  Q 473.52 125.72 473.52 126.69
  L 473.56 236.00
  A 0.70 0.70 0.0 0 0 474.26 236.70
  L 503.49 236.73
  A 0.97 0.97 0.0 0 0 504.46 235.76
  L 504.46 126.26
  Q 504.46 125.72 504.99 125.72
  L 554.17 125.74
  Q 554.59 125.74 554.81 126.09
  Q 573.30 155.07 591.72 184.10
  C 592.75 185.73 592.88 187.16 592.89 189.00
  Q 593.02 212.40 592.90 235.82
  A 0.87 0.87 0.0 0 0 593.77 236.69
  L 623.24 236.72
  Q 623.86 236.72 623.86 236.11
  Q 623.90 211.87 623.98 187.64
  Q 623.99 185.68 625.70 182.96
  Q 652.72 140.16 679.66 97.54
  A 0.85 0.85 0.0 0 1 681.23 98.00
  L 681.07 129.79
  A 1.99 1.99 0.0 0 0 681.96 131.45
  L 710.35 150.07
  Z
  M 830.31 166.12
  A 14.61 14.61 0.0 0 0 815.70 151.51
  A 14.61 14.61 0.0 0 0 801.09 166.12
  A 14.61 14.61 0.0 0 0 815.70 180.73
  A 14.61 14.61 0.0 0 0 830.31 166.12
  Z"
/>
<path fill="#898b8e" d="
  M 170.96 132.38
  C 170.94 123.28 162.77 125.49 160.84 132.26
  Q 146.11 184.11 131.49 236.16
  A 0.77 0.77 0.0 0 1 130.75 236.72
  L 102.73 236.72
  A 0.79 0.78 -82.1 0 1 101.98 235.72
  Q 119.18 176.22 136.22 117.23
  C 143.28 92.79 177.26 88.04 192.52 107.23
  Q 198.27 114.46 198.32 124.00
  Q 198.51 163.25 198.51 202.49
  C 198.51 206.63 200.61 211.35 205.60 209.57
  C 208.53 208.53 208.95 206.17 209.74 203.38
  Q 221.23 162.89 232.75 122.41
  Q 235.40 113.08 238.03 109.10
  C 251.64 88.45 287.58 91.58 295.13 116.14
  Q 296.66 121.14 296.63 135.00
  Q 296.51 185.57 296.58 236.13
  A 0.61 0.61 0.0 0 1 295.97 236.74
  L 270.01 236.68
  A 0.84 0.83 90.0 0 1 269.18 235.84
  Q 269.35 184.24 269.19 132.51
  C 269.18 129.89 267.79 126.27 264.71 126.18
  C 261.28 126.08 258.92 131.14 258.14 134.01
  Q 247.90 171.82 237.47 209.57
  Q 235.13 218.03 232.58 222.06
  C 223.68 236.14 208.84 238.45 193.25 235.75
  C 181.95 233.80 170.85 223.19 170.89 211.00
  Q 171.04 171.69 170.96 132.38
  Z"
/>
<path fill="#898b8e" d="
  M 313.47 165.87
  Q 303.13 147.82 307.03 128.40
  C 310.38 111.69 321.22 98.68 338.51 96.00
  Q 341.79 95.49 358.49 95.52
  Q 390.71 95.58 422.80 95.48
  A 0.46 0.46 0.0 0 1 423.19 96.17
  L 406.13 124.60
  A 2.37 2.37 0.0 0 1 404.10 125.75
  Q 376.63 125.71 348.75 125.80
  C 339.19 125.83 336.31 137.44 338.89 144.79
  C 340.58 149.61 346.06 151.33 351.00 151.31
  Q 387.13 151.19 423.24 151.21
  A 0.34 0.34 0.0 0 1 423.58 151.55
  L 423.65 179.77
  A 0.73 0.73 0.0 0 1 422.92 180.50
  Q 386.87 180.48 350.62 180.53
  C 344.73 180.54 340.77 181.51 338.48 186.95
  C 335.57 193.87 337.55 203.27 345.11 205.95
  Q 347.29 206.72 353.45 206.72
  Q 388.35 206.72 423.11 206.74
  A 0.50 0.50 0.0 0 1 423.61 207.23
  L 423.62 236.12
  Q 423.62 236.68 423.06 236.68
  Q 383.72 236.74 344.50 236.79
  C 307.78 236.83 297.08 193.37 313.46 166.78
  Q 313.73 166.33 313.47 165.87
  Z"
/>
<path fill="#898b8e" d="
  M 737.34 132.49
  L 710.35 150.07
  L 681.96 131.45
  A 1.99 1.99 0.0 0 1 681.07 129.79
  L 681.23 98.00
  A 0.85 0.85 0.0 0 0 679.66 97.54
  Q 652.72 140.16 625.70 182.96
  Q 623.99 185.68 623.98 187.64
  Q 623.90 211.87 623.86 236.11
  Q 623.86 236.72 623.24 236.72
  L 593.77 236.69
  A 0.87 0.87 0.0 0 1 592.90 235.82
  Q 593.02 212.40 592.89 189.00
  C 592.88 187.16 592.75 185.73 591.72 184.10
  Q 573.30 155.07 554.81 126.09
  Q 554.59 125.74 554.17 125.74
  L 504.99 125.72
  Q 504.46 125.72 504.46 126.26
  L 504.46 235.76
  A 0.97 0.97 0.0 0 1 503.49 236.73
  L 474.26 236.70
  A 0.70 0.70 0.0 0 1 473.56 236.00
  L 473.52 126.69
  Q 473.52 125.72 472.55 125.72
  L 411.72 125.74
  A 0.39 0.39 0.0 0 1 411.38 125.15
  L 428.04 96.90
  A 2.76 2.74 -74.7 0 1 430.41 95.54
  L 571.53 95.53
  A 1.72 1.70 -15.9 0 1 572.98 96.33
  Q 589.17 122.01 605.35 147.71
  C 607.09 150.46 609.80 151.74 611.89 148.36
  Q 627.95 122.33 643.96 96.37
  Q 644.48 95.52 645.48 95.52
  L 679.52 95.51
  A 5.19 5.18 -28.4 0 1 682.35 96.35
  L 737.34 132.49
  Z"
/>
<path fill="#e12626" d="
  M 764.00 150.08
  Q 738.00 166.79 712.17 183.39
  Q 711.54 183.80 710.74 183.60
  L 685.28 167.33
  A 0.55 0.55 0.0 0 1 685.28 166.41
  L 710.35 150.07
  L 737.34 132.49
  L 793.18 96.05
  A 0.54 0.53 73.3 0 1 794.01 96.50
  L 794.00 129.73
  A 2.00 1.99 -16.4 0 1 793.08 131.41
  L 764.00 150.08
  Z"
/>
<path fill="#898b8e" d="
  M 764.00 150.08
  L 789.37 166.58
  A 0.39 0.39 0.0 0 1 789.37 167.24
  Q 777.03 175.13 764.64 183.09
  Q 764.46 183.20 764.37 183.38
  Q 764.08 183.96 764.34 183.82
  Q 764.17 183.89 763.99 183.91
  Q 763.70 183.93 763.45 184.09
  L 737.43 200.60
  L 681.88 236.20
  A 0.52 0.52 0.0 0 1 681.08 235.76
  L 681.06 204.27
  A 1.63 1.61 -16.3 0 1 681.82 202.90
  Q 696.07 193.87 710.48 184.49
  Q 711.24 184.00 710.74 183.60
  Q 711.54 183.80 712.17 183.39
  Q 738.00 166.79 764.00 150.08
  Z"
/>
<path fill="#898b8e" d="
  M 830.31 166.12
  A 14.61 14.61 0.0 0 1 815.70 180.73
  A 14.61 14.61 0.0 0 1 801.09 166.12
  A 14.61 14.61 0.0 0 1 815.70 151.51
  A 14.61 14.61 0.0 0 1 830.31 166.12
  Z
  M 828.09 166.13
  A 12.38 12.38 0.0 0 0 815.71 153.75
  A 12.38 12.38 0.0 0 0 803.33 166.13
  A 12.38 12.38 0.0 0 0 815.71 178.51
  A 12.38 12.38 0.0 0 0 828.09 166.13
  Z"
/>
<path fill="#ffffff" d="
  M 828.09 166.13
  A 12.38 12.38 0.0 0 1 815.71 178.51
  A 12.38 12.38 0.0 0 1 803.33 166.13
  A 12.38 12.38 0.0 0 1 815.71 153.75
  A 12.38 12.38 0.0 0 1 828.09 166.13
  Z
  M 812.77 168.93
  A 1.80 1.79 31.0 0 1 816.15 168.09
  C 817.20 170.07 818.52 174.83 821.62 173.57
  Q 822.02 173.41 821.82 173.02
  L 819.30 168.22
  Q 819.01 167.66 819.55 167.34
  Q 823.36 165.06 821.72 160.65
  C 820.40 157.07 814.47 157.78 810.81 158.15
  Q 810.25 158.21 810.25 158.77
  L 810.27 173.11
  Q 810.27 173.95 811.11 173.87
  L 812.17 173.76
  A 0.67 0.67 0.0 0 0 812.77 173.09
  L 812.77 168.93
  Z"
/>
<path fill="#898b8e" d="
  M 812.77 168.93
  L 812.77 173.09
  A 0.67 0.67 0.0 0 1 812.17 173.76
  L 811.11 173.87
  Q 810.27 173.95 810.27 173.11
  L 810.25 158.77
  Q 810.25 158.21 810.81 158.15
  C 814.47 157.78 820.40 157.07 821.72 160.65
  Q 823.36 165.06 819.55 167.34
  Q 819.01 167.66 819.30 168.22
  L 821.82 173.02
  Q 822.02 173.41 821.62 173.57
  C 818.52 174.83 817.20 170.07 816.15 168.09
  A 1.80 1.79 31.0 0 0 812.77 168.93
  Z
  M 819.6489 161.8777
  A 1.43 1.43 0.0 0 0 818.2015 160.4653
  L 814.1218 160.5151
  A 1.43 1.43 0.0 0 0 812.7094 161.9625
  L 812.7311 163.7423
  A 1.43 1.43 0.0 0 0 814.1785 165.1547
  L 818.2582 165.1049
  A 1.43 1.43 0.0 0 0 819.6706 163.6575
  L 819.6489 161.8777
  Z"
/>
<rect fill="#ffffff" x="-3.47" y="-2.32" transform="translate(816.19,162.81) rotate(-0.7)" width="6.94" height="4.64" rx="1.43"/>
<path fill="#e12626" d="
  M 764.34 183.82
  L 793.32 202.51
  A 1.49 1.49 0.0 0 1 794.00 203.76
  L 794.01 235.99
  Q 794.01 236.72 793.40 236.33
  L 737.43 200.60
  L 763.45 184.09
  Q 763.70 183.93 763.99 183.91
  Q 764.17 183.89 764.34 183.82
  Z"
/>
</svg>
