<?xml version="1.0" encoding="UTF-8"?>
<!DOCTYPE svg PUBLIC "-//W3C//DTD SVG 1.1//EN" "http://www.w3.org/Graphics/SVG/1.1/DTD/svg11.dtd">
<svg xmlns="http://www.w3.org/2000/svg" version="1.1" width="225px" height="225px" style="shape-rendering:geometricPrecision; text-rendering:geometricPrecision; image-rendering:optimizeQuality; fill-rule:evenodd; clip-rule:evenodd" xmlns:xlink="http://www.w3.org/1999/xlink">
<g><path style="opacity:1" fill="#fefefe" d="M -0.5,-0.5 C 74.5,-0.5 149.5,-0.5 224.5,-0.5C 224.5,74.5 224.5,149.5 224.5,224.5C 149.5,224.5 74.5,224.5 -0.5,224.5C -0.5,149.5 -0.5,74.5 -0.5,-0.5 Z"/></g>
<g><path style="opacity:1" fill="#5ebbea" d="M 174.5,45.5 C 174.5,45.8333 174.5,46.1667 174.5,46.5C 133.833,46.5 93.1667,46.5 52.5,46.5C 52.5,52.5 52.5,58.5 52.5,64.5C 52.1667,64.5 51.8333,64.5 51.5,64.5C 51.5,58.1667 51.5,51.8333 51.5,45.5C 92.5,45.5 133.5,45.5 174.5,45.5 Z"/></g>
<g><path style="opacity:1" fill="#009ee2" d="M 174.5,46.5 C 174.5,89.8333 174.5,133.167 174.5,176.5C 167.833,176.5 161.167,176.5 154.5,176.5C 154.5,139.167 154.5,101.833 154.5,64.5C 120.5,64.5 86.5,64.5 52.5,64.5C 52.5,58.5 52.5,52.5 52.5,46.5C 93.1667,46.5 133.833,46.5 174.5,46.5 Z"/></g>
<g><path style="opacity:1" fill="#91ccf0" d="M 174.5,45.5 C 175.499,89.3302 175.832,133.33 175.5,177.5C 168.167,177.5 160.833,177.5 153.5,177.5C 153.5,140.167 153.5,102.833 153.5,65.5C 119.329,65.8317 85.3292,65.4983 51.5,64.5C 51.8333,64.5 52.1667,64.5 52.5,64.5C 86.5,64.5 120.5,64.5 154.5,64.5C 154.5,101.833 154.5,139.167 154.5,176.5C 161.167,176.5 167.833,176.5 174.5,176.5C 174.5,133.167 174.5,89.8333 174.5,46.5C 174.5,46.1667 174.5,45.8333 174.5,45.5 Z"/></g>
<g><path style="opacity:1" fill="#0f9fe3" d="M 129.5,118.5 C 129.5,124.5 129.5,130.5 129.5,136.5C 109.5,136.5 89.5,136.5 69.5,136.5C 69.1832,140.702 69.5166,144.702 70.5,148.5C 70.277,154.561 72.9437,158.728 78.5,161C 82.5,161.167 86.5,161.333 90.5,161.5C 101.429,164.224 107.763,160.224 109.5,149.5C 116.5,149.5 123.5,149.5 130.5,149.5C 131.062,167.437 122.396,176.937 104.5,178C 93.4558,178.85 82.4558,178.517 71.5,177C 58.7711,174.271 51.6045,166.437 50,153.5C 48.1016,139.488 48.1016,125.488 50,111.5C 52.9391,98.8943 60.7724,91.3943 73.5,89C 83.8333,88.3333 94.1667,88.3333 104.5,89C 121.603,91.2775 129.936,101.111 129.5,118.5 Z"/></g>
<g><path style="opacity:1" fill="#fbfdfe" d="M 77.5,104.5 C 86.5822,104.086 95.5822,104.586 104.5,106C 108.715,111.015 110.382,116.848 109.5,123.5C 96.1667,123.5 82.8333,123.5 69.5,123.5C 69.2101,119.064 69.7101,114.73 71,110.5C 72.4936,107.686 74.6603,105.686 77.5,104.5 Z"/></g>
<g><path style="opacity:1" fill="#86c8ee" d="M 129.5,118.5 C 130.49,124.645 130.823,130.978 130.5,137.5C 110.5,137.5 90.5,137.5 70.5,137.5C 70.5,141.167 70.5,144.833 70.5,148.5C 69.5166,144.702 69.1832,140.702 69.5,136.5C 89.5,136.5 109.5,136.5 129.5,136.5C 129.5,130.5 129.5,124.5 129.5,118.5 Z"/></g>
</svg>
